<svg width="64" height="64" viewBox="0 0 64 64" fill="none" xmlns="http://www.w3.org/2000/svg">
<path d="M50.9231 10.3086H13.0769C10.2775 10.3086 8 12.6185 8 15.4575V36.5213V39.798C8 42.6371 10.2775 44.9469 13.0769 44.9469H25.3356L23.8587 52.4363H19.0769C18.5671 52.4363 18.1539 52.8554 18.1539 53.3724C18.1539 53.8895 18.5671 54.3086 19.0769 54.3086H44.9231C45.4329 54.3086 45.8461 53.8895 45.8461 53.3724C45.8461 52.8554 45.4329 52.4363 44.9231 52.4363H40.1413L38.6644 44.9469H50.9231C53.7224 44.9469 56 42.6372 56 39.798V36.5213V15.4575C56 12.6185 53.7225 10.3086 50.9231 10.3086ZM25.7413 52.4363L27.2183 44.9469H36.7817L38.2587 52.4363H25.7413ZM54.1539 39.798C54.1539 41.6047 52.7046 43.0746 50.9231 43.0746H13.0769C11.2955 43.0746 9.84612 41.6048 9.84612 39.798V37.4576H54.1538V39.798H54.1539ZM54.1539 35.5853H9.84612V33.713H15.3846C15.8944 33.713 16.3077 33.2939 16.3077 32.7768C16.3077 32.2598 15.8944 31.8407 15.3846 31.8407H9.84612V15.4575C9.84612 13.6508 11.2954 12.1809 13.0769 12.1809H50.9231C52.7045 12.1809 54.1539 13.6507 54.1539 15.4575V35.5853Z" fill="#4E6575"/>
<rect x="13" y="14.0547" width="38" height="15.2128" fill="#EFF2F3"/>
<path d="M31.9999 38C30.982 38 30.1538 38.8282 30.1538 39.8461C30.1538 40.8641 30.982 41.6923 31.9999 41.6923C33.0179 41.6923 33.8461 40.8641 33.8461 39.8461C33.8461 38.8282 33.0179 38 31.9999 38Z" fill="#4E6575"/>
<path d="M39.5575 27.9871L37.5994 26.0289L39.2312 24.3972C39.4685 24.1599 39.5583 23.8126 39.4657 23.49C39.3732 23.1675 39.113 22.9206 38.786 22.845L30.3006 20.8869C29.9906 20.8155 29.6655 20.9085 29.4403 21.1336C29.2153 21.3587 29.122 21.6837 29.1936 21.9939L31.1519 30.4792C31.2274 30.8061 31.4743 31.0664 31.7969 31.1589C32.1196 31.2514 32.4667 31.1616 32.7041 30.9244L34.3358 29.2926L36.294 31.2507C36.4743 31.431 36.7105 31.5211 36.9467 31.5211C37.1828 31.5211 37.4192 31.431 37.5994 31.2507L39.5575 29.2926C39.9179 28.9321 39.9179 28.3477 39.5575 27.9871ZM36.9467 29.2926L34.9885 27.3344C34.8082 27.1541 34.572 27.064 34.3358 27.064C34.0997 27.064 33.8633 27.1541 33.6831 27.3344L32.5763 28.4413L31.3248 23.018L36.7481 24.2694L35.6412 25.3763C35.2807 25.7367 35.2807 26.3213 35.6412 26.6817L37.5994 28.6399L36.9467 29.2926Z" fill="#4E6575"/>
<path d="M28.2005 18.5879L27.2775 17.6649C26.917 17.3044 26.3325 17.3044 25.972 17.6649C25.6115 18.0254 25.6115 18.6098 25.972 18.9704L26.8952 19.8934C27.0754 20.0737 27.3117 20.1638 27.5479 20.1638C27.784 20.1638 28.0204 20.0737 28.2005 19.8934C28.561 19.533 28.561 18.9485 28.2005 18.5879Z" fill="#4E6575"/>
<path d="M26.4008 21.0859H25.0954C24.5856 21.0859 24.1724 21.4992 24.1724 22.009C24.1724 22.5188 24.5856 22.9321 25.0954 22.9321H26.4008C26.9106 22.9321 27.3239 22.5188 27.3239 22.009C27.3239 21.4992 26.9106 21.0859 26.4008 21.0859Z" fill="#4E6575"/>
<path d="M28.2004 24.1258C27.8401 23.7654 27.2556 23.7654 26.8951 24.1258L25.972 25.0489C25.6115 25.4094 25.6115 25.9939 25.972 26.3544C26.1523 26.5346 26.3885 26.6247 26.6247 26.6247C26.8609 26.6247 27.0972 26.5346 27.2774 26.3544L28.2004 25.4313C28.5609 25.0709 28.5609 24.4864 28.2004 24.1258Z" fill="#4E6575"/>
<path d="M34.662 17.6649C34.3015 17.3044 33.7171 17.3044 33.3565 17.6649L32.4334 18.5879C32.073 18.9484 32.073 19.5329 32.4334 19.8934C32.6137 20.0737 32.85 20.1638 33.0862 20.1638C33.3225 20.1638 33.5587 20.0737 33.7389 19.8934L34.662 18.9704C35.0224 18.61 35.0224 18.0254 34.662 17.6649Z" fill="#4E6575"/>
<path d="M30.3171 15.8633C29.8073 15.8633 29.394 16.2765 29.394 16.7863V18.0917C29.394 18.6015 29.8073 19.0148 30.3171 19.0148C30.8269 19.0148 31.2402 18.6015 31.2402 18.0917V16.7863C31.2402 16.2765 30.8269 15.8633 30.3171 15.8633Z" fill="#4E6575"/>
<path d="M19.0586 32.2817C19.0476 32.2227 19.0291 32.1646 19.006 32.1082C18.983 32.0528 18.9544 31.9993 18.9211 31.9494C18.8879 31.8986 18.8491 31.8515 18.8066 31.8091C18.7641 31.7666 18.7171 31.7279 18.6663 31.6946C18.6164 31.6614 18.5629 31.6327 18.5066 31.6097C18.4512 31.5866 18.3931 31.5681 18.334 31.5571C18.215 31.5331 18.0931 31.5331 17.974 31.5571C17.915 31.5681 17.8568 31.5866 17.8014 31.6097C17.7451 31.6327 17.6916 31.6613 17.6418 31.6946C17.591 31.7278 17.5439 31.7666 17.5014 31.8091C17.459 31.8515 17.4202 31.8986 17.387 31.9494C17.3538 31.9993 17.3251 32.0528 17.302 32.1082C17.279 32.1646 17.2605 32.2227 17.2494 32.2817C17.2374 32.3408 17.231 32.4018 17.231 32.4618C17.231 32.5218 17.2374 32.5827 17.2494 32.6417C17.2605 32.7008 17.279 32.7589 17.302 32.8143C17.3251 32.8707 17.3537 32.9242 17.387 32.974C17.4201 33.0248 17.459 33.0719 17.5014 33.1143C17.5439 33.1568 17.591 33.1955 17.6418 33.2288C17.6916 33.262 17.7452 33.2907 17.8014 33.3137C17.8568 33.3368 17.915 33.3553 17.974 33.3673C18.0331 33.3793 18.094 33.3848 18.154 33.3848C18.214 33.3848 18.275 33.3793 18.334 33.3673C18.3931 33.3553 18.4512 33.3368 18.5066 33.3137C18.563 33.2907 18.6165 33.2621 18.6663 33.2288C18.7171 33.1956 18.7641 33.1568 18.8066 33.1143C18.8491 33.0719 18.8878 33.0248 18.9211 32.974C18.9543 32.9241 18.983 32.8706 19.006 32.8143C19.0291 32.7589 19.0476 32.7008 19.0586 32.6417C19.0706 32.5827 19.0771 32.5218 19.0771 32.4618C19.0771 32.4018 19.0706 32.3408 19.0586 32.2817Z" fill="#4E6575"/>
</svg>
