<svg width="64" height="64" viewBox="0 0 64 64" fill="none" xmlns="http://www.w3.org/2000/svg">
<path d="M41.3482 25.3152C42.8482 27.3666 43.7347 29.8946 43.7347 32.6259C43.7347 39.4649 38.1772 45.0288 31.346 45.0288C24.5149 45.0288 18.9574 39.4649 18.9574 32.6259C18.9574 25.7869 24.5149 20.223 31.346 20.223C34.1038 20.223 36.6539 21.1297 38.7146 22.6611L42.2832 19.0884C39.2929 16.6622 35.486 15.207 31.346 15.207C21.7523 15.207 13.9473 23.0211 13.9473 32.6259C13.9473 42.2307 21.7523 50.0448 31.346 50.0448C40.9398 50.0448 48.7448 42.2307 48.7448 32.6259C48.7448 28.5105 47.3118 24.724 44.9193 21.74L41.3482 25.3152Z" fill="#607987" fill-opacity="0.1"/>
<path d="M31.7505 32.2783C32.4562 30.066 33.6108 28.028 35.1379 26.2901C34.0291 25.6225 32.7317 25.2383 31.3463 25.2383C27.2777 25.2383 23.9678 28.5521 23.9678 32.6254C23.9678 36.6985 27.2778 40.0125 31.3463 40.0125C35.4147 40.0125 38.7248 36.6986 38.7248 32.6254C38.7248 31.2679 38.3571 29.9948 37.7163 28.9005C35.9839 30.4226 33.9537 31.5739 31.7505 32.2783Z" fill="#607987" fill-opacity="0.1"/>
<path d="M55.725 17.1125C55.9797 16.8575 56.0663 16.4787 55.9476 16.1379C55.8289 15.7972 55.5261 15.5548 55.1683 15.5139L51.3775 15.0821L48.9259 12.6277L48.4946 8.83345C48.4539 8.47516 48.2122 8.17174 47.8725 8.05278C47.5327 7.93344 47.1552 8.02027 46.9006 8.27492L43.1916 11.9883C43.0887 12.0914 42.9919 12.199 42.9015 12.3107C39.3927 10.3068 35.4148 9.25113 31.3464 9.25113C25.1105 9.25113 19.2478 11.6823 14.8383 16.097C10.4286 20.5119 8 26.3819 8 32.6256C8 38.8693 10.4286 44.7393 14.8383 49.1542C19.2478 53.5687 25.1105 56 31.3464 56C37.5822 56 43.4449 53.5688 47.8544 49.1542C52.2641 44.7393 54.6927 38.8693 54.6927 32.6256C54.6927 28.581 53.6528 24.6244 51.678 21.129C51.7952 21.0348 51.9081 20.9337 52.0159 20.8258L55.725 17.1125ZM50.6908 19.4961C50.2116 19.976 49.5507 20.2081 48.8764 20.1306L47.9579 20.026L51.0446 16.9357L53.0232 17.1611L50.6908 19.4961ZM37.8514 27.4878C36.5653 28.7753 35.0556 29.8358 33.4122 30.6144C34.1897 28.97 35.2487 27.4591 36.5343 26.1722L48.1679 14.5251L49.4836 15.8422L37.8514 27.4878ZM30.9293 31.7729C30.9274 31.7747 30.9255 31.7765 30.9237 31.7784L29.9232 32.7799C29.557 33.1467 29.5566 33.7417 29.9225 34.1089C30.1056 34.2926 30.3457 34.3845 30.5858 34.3845C30.8256 34.3845 31.0653 34.2929 31.2483 34.1096L32.2487 33.108C32.2507 33.1061 32.2526 33.1041 32.2545 33.1021C34.8512 32.234 37.2404 30.7558 39.1766 28.8175L41.2005 26.7912C42.2479 28.5546 42.7976 30.5541 42.7976 32.6257C42.7976 38.9467 37.6606 44.089 31.3464 44.089C25.0321 44.089 19.8952 38.9466 19.8952 32.6257C19.8952 26.3049 25.0321 21.1624 31.3464 21.1624C33.4469 21.1624 35.4677 21.7272 37.2459 22.8036L35.2092 24.8426C33.2731 26.7808 31.7966 29.1729 30.9293 31.7729ZM46.8516 10.9804L47.0766 12.9613L43.988 16.0535L43.8834 15.1325C43.807 14.4589 44.0377 13.7974 44.5167 13.3178L46.8516 10.9804ZM52.8178 32.6256C52.8178 44.478 43.1859 54.1207 31.3465 54.1207C19.5071 54.1207 9.875 44.478 9.875 32.6256C9.875 20.7731 19.507 11.1305 31.3464 11.1305C35.1326 11.1305 38.8327 12.1238 42.0865 14.0087C41.9927 14.4411 41.9689 14.8917 42.0204 15.3452L42.2936 17.7499L38.6067 21.441C36.4436 20.027 33.9476 19.2831 31.3464 19.2831C23.9983 19.2831 18.0202 25.2686 18.0202 32.6257C18.0202 39.9828 23.9983 45.9683 31.3464 45.9683C38.6944 45.9683 44.6726 39.9828 44.6726 32.6257C44.6726 30.0537 43.9449 27.5771 42.5629 25.4273L46.2616 21.7244L48.6647 21.998C48.8216 22.0157 48.9779 22.0247 49.1335 22.0247C49.4199 22.0247 49.703 21.9947 49.9788 21.9363C51.8381 25.1784 52.8178 28.8601 52.8178 32.6256Z" fill="#4E6575"/>
</svg>
