<svg width="48" height="48" viewBox="0 0 48 48" fill="none" xmlns="http://www.w3.org/2000/svg">
<path d="M23.9996 41.3538C33.8758 41.3538 41.882 33.4483 41.882 23.6964C41.882 13.9445 33.8758 6.03906 23.9996 6.03906C14.1234 6.03906 6.11719 13.9445 6.11719 23.6964C6.11719 33.4483 14.1234 41.3538 23.9996 41.3538Z" fill="#607987" fill-opacity="0.1"/>
<path d="M33.5469 20.6913L27.5332 19.8285L24.8438 14.4477C24.6851 14.1305 24.358 13.9297 23.9997 13.9297C23.6414 13.9297 23.3144 14.1305 23.1557 14.4477L20.4663 19.8285L14.4526 20.6913C13.6823 20.802 13.3731 21.7396 13.9311 22.2766L18.2826 26.4647L17.2553 32.3788C17.1238 33.1364 17.9313 33.7163 18.621 33.3585L23.9997 30.5664L29.3785 33.3585C30.0644 33.7144 30.8762 33.1393 30.7441 32.3788L29.7168 26.4647L34.0684 22.2766C34.6258 21.7401 34.318 20.8021 33.5469 20.6913ZM28.0486 25.4748C27.8268 25.6884 27.7255 25.9959 27.7778 26.2975L28.5664 30.8372L24.4377 28.6939C24.1634 28.5517 23.836 28.5517 23.5617 28.6939L19.4329 30.8372L20.2216 26.2975C20.2739 25.996 20.1726 25.6884 19.9508 25.4748L16.6105 22.2599L21.2266 21.5975C21.5332 21.5535 21.7981 21.3634 21.9353 21.0891L23.9997 16.9588L26.0642 21.0891C26.2013 21.3633 26.4663 21.5535 26.7728 21.5975L31.3889 22.2599L28.0486 25.4748Z" fill="#4E6575"/>
<path d="M48 24C48 23.1639 47.6114 22.4478 47.2684 21.816C46.6943 20.7581 46.6739 20.6639 46.9395 19.4423C47.0904 18.7479 47.2616 17.9609 47.0343 17.1783C46.6451 15.8389 45.2879 15.1093 44.945 14.3521C44.595 13.5797 44.9357 12.0709 44.1942 10.9085C43.4491 9.74059 41.9398 9.42154 41.3997 8.79292C40.8564 8.16026 40.7575 6.60855 39.7206 5.70078C38.6813 4.79095 37.148 4.91433 36.4499 4.46031C35.7544 4.00845 35.2332 2.54859 33.976 1.96798C33.2332 1.62492 32.4319 1.68346 31.7249 1.73523C30.5063 1.82417 30.4222 1.79838 29.4596 1.06934C28.8877 0.636027 28.2393 0.145015 27.4159 0.0264271C26.6138 -0.0884906 25.8658 0.194051 25.206 0.443839C24.0529 0.87998 23.9481 0.880357 22.7942 0.443839C22.1343 0.194145 21.3868 -0.0885847 20.5843 0.0264271C19.761 0.145015 19.1126 0.636027 18.5406 1.06925C17.5798 1.79687 17.4957 1.82417 16.2754 1.73523C15.5685 1.68337 14.7673 1.62483 14.0243 1.96789C13.2746 2.31415 12.7928 2.96713 12.3676 3.54332C11.6433 4.52535 11.5659 4.57485 10.3783 4.83509C9.68454 4.98699 8.89828 5.15913 8.27964 5.70069C7.66157 6.24177 7.38185 7.00186 7.13507 7.67245C6.71023 8.82624 6.64773 8.89758 5.58269 9.48139C4.95813 9.82389 4.25027 10.212 3.80603 10.9083C3.06457 12.0704 3.40405 13.5817 3.05507 14.352C2.71201 15.1084 1.35407 15.8417 0.965743 17.1782C0.583436 18.4942 1.33149 19.8533 1.21252 20.6954C1.09798 21.5054 0 22.6051 0 23.9999C0 25.3977 1.0976 26.4918 1.21252 27.3044C1.33261 28.1549 0.582401 29.5014 0.965743 30.8214C1.35492 32.1609 2.7121 32.8905 3.05497 33.6477C3.40499 34.4199 3.06429 35.9288 3.80594 37.0913C4.55097 38.2592 6.06025 38.5782 6.60039 39.2069C7.14373 39.8395 7.24256 41.3912 8.27945 42.299C9.3188 43.2087 10.852 43.0854 11.5502 43.5395C12.2457 43.9913 12.7669 45.4512 14.0241 46.0318C15.2699 46.6071 16.7129 46.0542 17.511 46.2906C18.2955 46.5227 19.2082 47.7751 20.5842 47.9734C21.3615 48.0847 22.0751 47.828 22.7941 47.5559C23.9472 47.1198 24.052 47.1194 25.2059 47.5559C25.8657 47.8055 26.6131 48.0881 27.4158 47.9734C28.7906 47.7754 29.7092 46.5213 30.489 46.2906C31.2915 46.053 32.7266 46.6085 33.9758 46.0319C35.2344 45.4506 35.755 43.9911 36.4497 43.5395C37.1463 43.0867 38.683 43.2071 39.7204 42.2991C40.7572 41.3915 40.8573 39.8382 41.3995 39.2071C41.9412 38.5765 43.4488 38.2596 44.194 37.0915C44.9354 35.9294 44.5959 34.4181 44.9448 33.6478C45.2878 32.8913 46.6458 32.1581 47.0342 30.8215C47.4164 29.5056 46.6684 28.1464 46.7874 27.3044C46.902 26.4945 48 25.3948 48 24ZM44.9237 27.0412C44.7479 28.2854 45.4244 29.6158 45.2265 30.2966C45.0218 31.0019 43.7479 31.7286 43.2304 32.871C42.708 34.0235 42.9957 35.4703 42.607 36.0793C42.2175 36.6899 40.791 37.0269 39.9717 37.9805C39.1514 38.9351 39.0241 40.4071 38.4804 40.8829C37.9448 41.3519 36.4769 41.2769 35.4237 41.9614C34.3773 42.6418 33.8391 44.0218 33.1867 44.3231C32.5448 44.6194 31.1648 44.1279 29.9549 44.4858C28.7706 44.8362 27.8605 46.0077 27.1476 46.1103C26.4656 46.2097 25.2616 45.3442 24 45.3442C22.728 45.3442 21.5415 46.2104 20.8523 46.1103C20.5099 46.0611 20.1053 45.7546 19.6769 45.4301C18.7269 44.7105 18.1502 44.3478 16.9635 44.3478C16.1302 44.3478 15.2633 44.5307 14.8132 44.3229C14.16 44.0214 13.6255 42.6434 12.576 41.9613C11.5229 41.2767 10.0561 41.3528 9.51927 40.8828C8.97414 40.4054 8.85094 38.9382 8.02797 37.9802C7.20801 37.0258 5.78316 36.6912 5.39267 36.079C5.0066 35.4739 5.28999 34.0198 4.76933 32.8708C4.25159 31.7283 2.97826 31.0022 2.77328 30.2965C2.57469 29.613 3.25318 28.2944 3.07615 27.0411C2.90146 25.8028 1.88226 24.7478 1.88226 24C1.88226 23.2521 2.90137 22.1979 3.07624 20.9588C3.25196 19.7146 2.57553 18.3842 2.77337 17.7033C2.97808 16.9981 4.25196 16.2713 4.76952 15.1289C5.29187 13.9765 5.00425 12.5296 5.39286 11.9206C5.78241 11.3101 7.20896 10.9731 8.02816 10.0195C8.84849 9.06474 8.97583 7.59283 9.51945 7.11706C10.0551 6.64808 11.523 6.72299 12.5762 6.03857C13.6226 5.35829 14.1608 3.97815 14.8133 3.67688C15.4513 3.38247 16.8404 3.87085 18.0451 3.51415C19.2294 3.16375 20.1395 1.99226 20.8524 1.88967C21.5381 1.79132 22.7369 2.65579 24 2.65579C25.2696 2.65579 26.4589 1.79019 27.1477 1.88967C27.8701 1.99358 28.7548 3.15895 29.9549 3.51415C31.1552 3.86925 32.5502 3.38323 33.1868 3.67697C33.84 3.97843 34.3745 5.3565 35.424 6.03857C36.4771 6.72318 37.9439 6.64704 38.4806 7.11706C39.0259 7.59443 39.149 9.06153 39.9719 10.0197C40.7919 10.9741 42.2168 11.3087 42.6072 11.9208C42.9934 12.526 42.7099 13.9801 43.2306 15.1291C43.7482 16.2716 45.0216 16.9977 45.2266 17.7034C45.4252 18.3869 44.7467 19.7054 44.9238 20.9588C45.0984 22.1972 46.1177 23.2521 46.1177 24C46.1176 24.7478 45.0985 25.8021 44.9237 27.0412Z" fill="#4E6575"/>
</svg>
