<svg width="136" height="68" viewBox="0 0 136 68" fill="none" xmlns="http://www.w3.org/2000/svg">
<path fill-rule="evenodd" clip-rule="evenodd" d="M41.0112 29.3287L45.9473 24.3926C44.0521 22.3632 41.5902 20.951 38.8817 20.3396C36.1732 19.7282 33.3433 19.9459 30.7602 20.9645C28.177 21.983 25.9602 23.7553 24.3978 26.0507C22.8355 28.3462 22 31.0586 22 33.8353C22 36.612 22.8355 39.3244 24.3978 41.6199C25.9602 43.9153 28.177 45.6876 30.7602 46.7062C33.3433 47.7247 36.1732 47.9424 38.8817 47.331C41.5902 46.7197 44.0521 45.3074 45.9473 43.278L41.0112 38.3433C39.561 40.0086 37.9341 40.728 35.7146 40.681C34.935 40.6659 34.1689 40.4745 33.4738 40.1212C32.753 39.7551 32.7302 38.6752 33.5792 38.5641C34.3646 38.4577 35.122 38.2009 35.8101 37.8077C36.2745 38.0812 37.3971 38.4302 38.0395 38.5684C38.7724 38.2746 39.4283 37.8171 39.957 37.2307C39.2105 37.5156 37.2304 37.1467 36.5295 36.7663V35.1993L38.0153 33.7377H34.3912V30.6692C34.3919 30.409 34.296 30.1579 34.122 29.9644C33.948 29.771 33.7084 29.649 33.4496 29.6222L30.6646 29.3259C30.8712 29.0899 31.0934 28.8681 31.3299 28.662C32.0088 28.0679 32.7984 27.6137 33.6534 27.3255C34.5083 27.0373 35.4118 26.9209 36.3119 26.9828C37.212 27.0448 38.0909 27.2839 38.8984 27.6865C39.7058 28.089 40.4257 28.6471 41.0168 29.3287L38.0694 32.2761V30.6379C38.0685 30.3822 38.1611 30.135 38.3298 29.9429C38.4986 29.7508 38.7318 29.6271 38.9854 29.5951L41.0168 29.3287H41.0112ZM32.4068 34.4571H34.3357L35.0921 35.2007C35.0921 35.5882 35.0921 36.2079 35.0921 36.7678C34.3898 37.1495 32.3655 37.5171 31.6205 37.225C30.7657 36.8732 30.0933 34.3446 32.4083 34.4614L32.4068 34.4571ZM32.79 33.1921C31.5564 33.1921 30.1147 32.1451 30.1147 30.8359L32.79 31.1208V33.1921Z" fill="black"/>
<path fill-rule="evenodd" clip-rule="evenodd" d="M54.0756 34.6202C54.6966 34.6281 55.3107 34.489 55.8677 34.2142C56.3762 33.9773 56.82 33.621 57.1612 33.1757L55.8677 31.9206C55.3876 32.4776 54.8392 32.7512 54.2067 32.7512C53.984 32.7561 53.7627 32.7152 53.5566 32.6309C53.3505 32.5466 53.1639 32.4207 53.0086 32.2611C52.6992 31.9256 52.5273 31.486 52.5273 31.0296C52.5273 30.5732 52.6992 30.1335 53.0086 29.7981C53.1648 29.6362 53.3527 29.5082 53.5605 29.4222C53.7684 29.3362 53.9917 29.2939 54.2166 29.298C54.7865 29.298 55.3392 29.5616 55.8406 30.0901L57.0672 28.7596C56.4161 27.939 55.3306 27.419 54.0842 27.419C53.6093 27.4073 53.137 27.4924 52.6961 27.6692C52.2553 27.8461 51.8551 28.1109 51.52 28.4476C50.8305 29.1271 50.4814 29.9961 50.4814 31.0531C50.4814 32.1101 50.8219 32.9591 51.5014 33.6287C51.841 33.9571 52.2427 34.2145 52.683 34.3857C53.1233 34.5569 53.5934 34.6386 54.0656 34.6259L54.0756 34.6202ZM64.3182 34.5162L61.9121 27.5359H59.9961L57.5145 34.5162H59.5245L59.8735 33.3765H61.9776L62.3081 34.5162H64.3182ZM60.3451 31.6856L60.9491 29.7596L61.5346 31.6856H60.3451ZM67.3781 34.5205V31.5004L68.9637 33.6814H69.7272L71.3127 31.5004V34.5205H73.2573V27.5401H71.7287L69.3497 30.9192L66.9508 27.5458H65.4407V34.5262L67.3781 34.5205ZM79.5082 30.6884C79.7942 30.5764 80.0393 30.3803 80.2113 30.1259C80.3832 29.8715 80.4739 29.5709 80.4712 29.2638C80.472 29.035 80.4235 28.8087 80.3292 28.6003C80.2348 28.3919 80.0967 28.2062 79.9242 28.0558C79.5557 27.7168 79.0462 27.5468 78.3956 27.5458H74.9995V34.5262H78.5609C79.2304 34.5262 79.7775 34.3381 80.2034 33.9563C80.4105 33.7684 80.5742 33.5376 80.6832 33.2801C80.7922 33.0225 80.8438 32.7443 80.8345 32.4648C80.8345 31.5973 80.3729 30.8978 79.504 30.6998L79.5082 30.6884ZM78.0181 29.1883C78.0863 29.1836 78.1548 29.1931 78.2192 29.2161C78.2835 29.2392 78.3424 29.2754 78.3921 29.3224C78.4418 29.3694 78.4812 29.4262 78.5078 29.4892C78.5344 29.5522 78.5476 29.62 78.5467 29.6884C78.5467 29.9533 78.3572 30.1798 77.9327 30.1798H76.9355V29.1826L78.0181 29.1883ZM76.9227 32.8594V31.7198H78.1862C78.5922 31.7198 78.8102 31.9734 78.8102 32.2896C78.8102 32.6059 78.6022 32.8594 78.1207 32.8594H76.9227ZM88.1282 34.5205L86.7037 32.0004C87.5242 31.5859 87.9017 30.7924 87.9017 29.9149C87.9126 29.5993 87.8588 29.2849 87.7437 28.9909C87.6285 28.6969 87.4545 28.4296 87.2322 28.2054C86.7877 27.7624 86.1282 27.5444 85.2592 27.5444H82.2206V34.5247H84.1879V32.3409H84.7919L85.8959 34.5205H88.1282ZM85.2407 29.3294C85.3272 29.3242 85.4137 29.3377 85.4946 29.3688C85.5755 29.3999 85.6488 29.448 85.7095 29.5098C85.7702 29.5717 85.817 29.6458 85.8467 29.7272C85.8764 29.8086 85.8884 29.8954 85.8817 29.9818C85.8817 30.3494 85.6552 30.6414 85.1936 30.6414H84.1879V29.3294H85.2407ZM89.4445 34.5205H91.4261V27.5401H89.4445V34.5205ZM96.063 34.5205C97.177 34.5205 98.0455 34.209 98.6685 33.586C99.2996 32.9634 99.6116 32.1144 99.6116 31.0388C99.6116 29.9633 99.2996 29.1029 98.6771 28.4746C98.0545 27.8464 97.1955 27.5401 96.0815 27.5401H93.1754V34.5205H96.063ZM95.1385 29.4334H96.1542C96.3542 29.4214 96.5541 29.4581 96.7368 29.5405C96.9194 29.6229 97.0793 29.7484 97.2027 29.9063C97.4518 30.2265 97.5818 30.6234 97.5702 31.0289C97.5831 31.4398 97.4533 31.8426 97.2027 32.1685C97.0792 32.3262 96.9193 32.4516 96.7366 32.5337C96.554 32.6159 96.3541 32.6523 96.1542 32.64H95.1356V29.4334H95.1385ZM104.441 34.6202C105.639 34.6202 106.706 34.1857 107.64 33.3267V30.2268H104.469V31.8879H105.875V32.3024C105.602 32.5389 105.035 32.7554 104.469 32.7554C104.233 32.7675 103.997 32.7283 103.777 32.6406C103.557 32.5528 103.359 32.4185 103.196 32.2469C102.886 31.9102 102.717 31.4678 102.723 31.0104C102.718 30.7869 102.758 30.5648 102.84 30.3572C102.923 30.1496 103.047 29.9609 103.204 29.8023C103.37 29.6368 103.567 29.5071 103.785 29.4211C104.003 29.3351 104.235 29.2946 104.469 29.3023C105.019 29.3047 105.551 29.5015 105.969 29.8579L107.196 28.3763C106.441 27.7383 105.478 27.3992 104.489 27.4233C103.404 27.4233 102.508 27.7638 101.783 28.4433C101.058 29.1228 100.707 29.9818 100.707 31.0388C100.693 31.5165 100.779 31.9919 100.957 32.4351C101.136 32.8783 101.404 33.2798 101.746 33.6144C102.444 34.2854 103.341 34.6245 104.435 34.6245L104.441 34.6202ZM114.344 34.5162V32.7084H111.126V31.9349H114.118V30.1328H111.126V29.3579H114.363V27.5458H109.145V34.5262L114.344 34.5162Z" fill="black"/>
<path fill-rule="evenodd" clip-rule="evenodd" d="M53.2339 40.128V39.4371H51.8392V37.2575H51.1099V40.128H53.2339ZM55.8294 40.128V39.4627H54.4889V39.0354H55.7325V38.3672H54.4889V37.9399H55.8394V37.2675H53.7595V40.138L55.8294 40.128ZM58.9805 40.128L57.9591 37.2575H57.2825L56.234 40.128H56.979L57.15 39.6038H58.0617L58.2284 40.128H58.9805ZM57.338 38.9741L57.6229 38.1194L57.8936 38.9741H57.338ZM61.8168 40.128L61.1957 39.0638C61.3575 38.9888 61.4936 38.8677 61.5869 38.7156C61.6801 38.5636 61.7264 38.3874 61.72 38.2091C61.7239 38.0836 61.7022 37.9586 61.6561 37.8417C61.6101 37.7249 61.5407 37.6187 61.4521 37.5296C61.3467 37.4332 61.2227 37.3594 61.0877 37.3126C60.9528 37.2658 60.8097 37.2471 60.6672 37.2575H59.4706V40.128H60.1971V39.1778H60.482L60.9863 40.1294L61.8168 40.128ZM60.6587 37.9228C61.0632 37.8914 61.0989 38.5667 60.6316 38.5439H60.1971V37.9228H60.6587ZM64.2343 38.8145L62.9052 37.2575H62.3924V40.128H63.1046V38.5895L64.4095 40.128H64.9566V37.2575H64.2443V38.8145H64.2343ZM65.7073 40.128H66.4367V37.2575H65.7073V40.128ZM69.045 38.8145L67.7159 37.2575H67.196V40.128H67.9082V38.5895L69.2131 40.128H69.7602V37.2575H69.0479V38.8145H69.045ZM71.8941 40.1707C72.1391 40.1722 72.3819 40.1244 72.608 40.0302C72.8341 39.936 73.039 39.7972 73.2104 39.6223V38.3801H71.9027V39.0012H72.5551V39.2505C72.3731 39.3994 72.145 39.4805 71.9098 39.4798C71.8037 39.4835 71.698 39.4645 71.5998 39.4243C71.5015 39.384 71.413 39.3233 71.34 39.2462C71.1974 39.0955 71.1192 38.8952 71.122 38.6878C71.1188 38.5832 71.1372 38.4791 71.1759 38.382C71.2147 38.2848 71.273 38.1967 71.3473 38.123C71.4216 38.0494 71.5103 37.9918 71.6078 37.954C71.7053 37.9161 71.8096 37.8987 71.9141 37.9028C72.1643 37.9029 72.4053 37.9969 72.5893 38.1664L73.0523 37.6265C72.7404 37.3521 72.338 37.2029 71.9226 37.2076C71.5138 37.1961 71.1169 37.3467 70.8186 37.6265C70.5403 37.9098 70.383 38.2903 70.3801 38.6874C70.3771 39.0846 70.5288 39.4674 70.8029 39.7548C70.9485 39.8938 71.1204 40.0022 71.3086 40.0737C71.4967 40.1451 71.6973 40.1781 71.8984 40.1707H71.8941ZM75.957 40.1707C76.2113 40.1744 76.4628 40.1172 76.6906 40.0041C76.8982 39.9042 77.08 39.758 77.222 39.5767L76.7405 39.1151C76.6535 39.2285 76.5419 39.3207 76.414 39.3846C76.2862 39.4485 76.1455 39.4825 76.0026 39.4841C75.9005 39.4859 75.799 39.4672 75.7043 39.4291C75.6096 39.3909 75.5235 39.334 75.4513 39.2619C75.379 39.1882 75.3223 39.1009 75.2843 39.005C75.2464 38.9091 75.2281 38.8065 75.2305 38.7034C75.2275 38.5985 75.2454 38.4941 75.2834 38.3962C75.3213 38.2984 75.3784 38.2091 75.4513 38.1336C75.5236 38.0601 75.6102 38.0022 75.7057 37.9635C75.8013 37.9247 75.9038 37.906 76.0068 37.9085C76.1457 37.9133 76.282 37.9477 76.4065 38.0094C76.5311 38.0711 76.6411 38.1586 76.7291 38.2661L77.1921 37.7803C77.0437 37.5977 76.8556 37.4513 76.642 37.3526C76.4284 37.2538 76.1951 37.2052 75.9598 37.2105C75.7633 37.207 75.5682 37.2433 75.3861 37.3173C75.2041 37.3914 75.039 37.5016 74.9007 37.6413C74.7625 37.781 74.6541 37.9473 74.5819 38.1301C74.5098 38.3129 74.4755 38.5084 74.4811 38.7049C74.4746 38.9018 74.5093 39.0978 74.5829 39.2806C74.6565 39.4633 74.7674 39.6287 74.9085 39.7662C75.0483 39.9004 75.2133 40.0055 75.394 40.0755C75.5747 40.1454 75.7675 40.1788 75.9613 40.1736L75.957 40.1707ZM79.8218 40.128V39.4627H78.4827V39.0354H79.7249V38.3672H78.4827V37.9399H79.8261V37.2675H77.7519V40.138L79.8218 40.128ZM82.3518 38.8145L81.0241 37.2575H80.5027V40.128H81.215V38.5895L82.5199 40.128H83.0669V37.2575H82.3547V38.8145H82.3518ZM84.3918 40.128H85.1254V37.957H85.9175V37.2575H83.5955V37.957H84.3918V40.128ZM88.523 40.128V39.4627H87.1796V39.0354H88.4219V38.3672H87.1796V37.9399H88.523V37.2675H86.4488V40.138L88.523 40.128ZM91.5502 40.128L90.9291 39.0638C91.0909 38.9888 91.227 38.8677 91.3202 38.7156C91.4135 38.5636 91.4598 38.3874 91.4533 38.2091C91.4572 38.0836 91.4355 37.9586 91.3895 37.8417C91.3434 37.7249 91.274 37.6187 91.1855 37.5296C91.0801 37.4332 90.9561 37.3594 90.8211 37.3126C90.6861 37.2658 90.543 37.2471 90.4006 37.2575H89.2039V40.128H89.9305V39.1778H90.2154L90.7211 40.1294L91.5502 40.128ZM90.3935 37.9228C90.7966 37.8914 90.8322 38.5667 90.3664 38.5439H89.9305V37.9228H90.3935Z" fill="black"/>
</svg>
