<svg width="136" height="68" viewBox="0 0 136 68" fill="none" xmlns="http://www.w3.org/2000/svg">
<g clip-path="url(#clip0_5626_14358)">
<path d="M32.855 41.3476C31.0401 43.1481 29.2325 44.9563 27.4321 46.7723C27.2403 46.9641 27.1335 46.9491 26.9483 46.7639C25.9291 45.733 24.8949 44.7138 23.8657 43.6896C20.6997 40.5403 17.5303 37.3943 14.3576 34.2516C14.0741 33.9714 14.0807 33.8329 14.3576 33.5644C15.8589 32.1248 17.3469 30.6652 18.8381 29.2123C18.9148 29.1373 18.9949 29.0655 19.09 28.9805C19.1784 29.0589 19.2568 29.1173 19.3135 29.1823C19.7155 29.5826 20.1059 29.9963 20.5229 30.3817C20.7364 30.5768 20.6897 30.6903 20.5045 30.8654C19.5354 31.8162 18.5829 32.782 17.6087 33.7262C17.3902 33.938 17.3802 34.0598 17.6087 34.275C20.6847 37.3353 23.7534 40.4041 26.8149 43.4811C27.0384 43.7046 27.1485 43.6896 27.3687 43.4728C28.6081 42.215 29.8708 40.9707 31.1069 39.7146C31.3437 39.471 31.4772 39.4811 31.6957 39.7146C32.0543 40.1116 32.4413 40.4869 32.83 40.8539C33.0135 41.0357 33.0619 41.1458 32.855 41.3476Z" fill="black"/>
<path d="M28.4629 34.2592C26.9405 35.7238 25.4281 37.1978 23.9257 38.6813C23.7089 38.8965 23.5921 38.9231 23.3719 38.6813C23.0133 38.2826 22.6296 37.9039 22.2359 37.5436C22.0191 37.3468 22.0224 37.235 22.2359 37.0315C23.1984 36.0974 24.1359 35.1366 25.105 34.2108C25.3736 33.9539 25.3336 33.8271 25.0917 33.5869C22.048 30.5677 19.011 27.5396 15.9806 24.5026C15.8822 24.4041 15.7755 24.3107 15.647 24.1923C15.5503 24.2857 15.4602 24.3591 15.3768 24.4509C14.1257 25.6986 12.8747 26.943 11.6319 28.204C11.4117 28.4276 11.2766 28.4809 11.0448 28.2191C10.6778 27.8087 10.2758 27.425 9.87711 27.0514C9.7103 26.8846 9.67527 26.7862 9.86209 26.601C11.6892 24.7828 13.5074 22.9607 15.3167 21.1347C15.4969 20.9529 15.6103 20.9679 15.7638 21.1347C15.8572 21.2448 15.9723 21.3332 16.0757 21.4333L26.201 31.5185C26.9483 32.2642 27.7022 33.0198 28.4579 33.7437C28.6597 33.9372 28.6881 34.044 28.4629 34.2592Z" fill="black"/>
<path d="M99.6352 36.0465C99.5418 34.9289 98.8262 34.1199 97.6152 33.7646C97.5118 33.7346 97.39 33.7646 97.2716 33.6111C97.3717 33.5644 97.4551 33.5211 97.5385 33.4827C98.581 32.999 99.0764 32.1482 99.013 30.9722C98.958 29.9163 98.3909 29.1874 97.32 28.8237C97.0527 28.7307 96.7765 28.6653 96.4959 28.6286C94.8278 28.4301 93.1598 28.5835 91.4917 28.5318C91.2015 28.5318 91.2548 28.712 91.2548 28.8755C91.2548 32.2517 91.2548 35.6262 91.2548 39.0041C91.2548 39.3377 91.3599 39.3927 91.6568 39.391C93.0764 39.3794 94.4926 39.391 95.9154 39.381C96.627 39.3883 97.3318 39.2427 97.9822 38.954C99.1465 38.4136 99.7453 37.3693 99.6352 36.0465ZM92.7511 31.3842C92.7511 30.9272 92.7511 30.4701 92.7511 30.0114C92.7511 29.8663 92.7511 29.7212 92.9613 29.7262C94.0455 29.7579 95.1381 29.6211 96.2123 29.8446C97.0981 30.0298 97.4884 30.4918 97.5001 31.2808C97.5151 32.2216 97.1381 32.7604 96.2724 32.9939C95.3733 33.2358 94.4525 33.0957 93.5418 33.1191C92.7511 33.1391 92.7511 33.1191 92.7511 32.3301V31.3842ZM98.0239 36.944C97.797 37.6112 97.2816 37.9565 96.6277 38.0783C95.4117 38.3018 94.1773 38.1583 92.9579 38.195C92.7344 38.195 92.7578 38.0516 92.7561 37.9098V36.2551C92.7561 35.7046 92.7561 35.1524 92.7561 34.602C92.7561 34.4619 92.7294 34.3051 92.9529 34.3134C94.179 34.3601 95.415 34.1816 96.6227 34.4302C97.8304 34.6787 98.4292 35.7429 98.0239 36.944Z" fill="black"/>
<path d="M81.8452 34.7393L82.2072 34.6292C83.7085 34.1688 84.5091 33.0546 84.4508 31.4816C84.3957 30.0053 83.5316 29.0045 81.9953 28.6708C81.6123 28.5832 81.2206 28.539 80.8277 28.5391C79.2196 28.5391 77.6099 28.5557 76.0019 28.5391C75.6199 28.5391 75.5015 28.6125 75.5015 29.0195C75.5198 32.1271 75.5115 35.2331 75.5115 38.3424C75.5115 39.4183 75.5115 39.4033 76.5991 39.4083C76.9477 39.4083 77.0161 39.2899 77.0128 38.9729C76.9977 37.7435 77.0128 36.5125 76.9994 35.2831C76.9994 34.9695 77.0878 34.8828 77.3964 34.8895C78.2471 34.9095 79.0995 34.9145 79.9503 34.8895C80.0801 34.8772 80.2105 34.9056 80.3235 34.9708C80.4365 35.0359 80.5264 35.1346 80.5808 35.2531C81.3615 36.5308 82.1605 37.7953 82.9578 39.0613C83.0529 39.2148 83.113 39.4083 83.3598 39.3949C83.8436 39.3949 84.3257 39.3949 84.9012 39.3949L81.8452 34.7393ZM77.2163 33.6868C77.0094 33.6868 77.0044 33.5466 77.0044 33.3982C77.0044 32.2806 77.0044 31.1613 77.0044 30.042C77.0044 29.7885 77.0962 29.7167 77.338 29.7217C77.9669 29.7334 78.5974 29.7217 79.3397 29.7217C79.9319 29.7351 80.6442 29.6667 81.3414 29.8135C82.419 30.042 82.9445 30.6592 82.9445 31.66C82.9445 32.6959 82.369 33.4599 81.3214 33.6084C79.9636 33.8035 78.5858 33.6601 77.2163 33.6868Z" fill="black"/>
<path d="M121.041 29.5302C121.041 28.4343 121.041 28.441 119.934 28.5294C119.724 28.5461 119.669 28.6161 119.67 28.8129C119.705 31.5269 119.61 34.2392 119.724 36.9515C119.724 37.0983 119.819 37.3135 119.649 37.3752C119.478 37.4369 119.423 37.2084 119.347 37.0866C117.77 34.5945 116.161 32.1291 114.659 29.5953C114.159 28.7479 113.612 28.3926 112.658 28.516C112.294 28.5611 112.196 28.6311 112.197 28.9964C112.212 32.1658 112.206 35.3352 112.206 38.5045C112.206 39.3819 112.206 39.3586 113.061 39.3903C113.463 39.4036 113.55 39.2785 113.548 38.8898C113.528 36.5228 113.538 34.1558 113.538 31.7888V30.3543C113.675 30.5478 113.765 30.6645 113.845 30.7913C115.413 33.2834 117.015 35.7555 118.524 38.2877C119.025 39.135 119.565 39.5554 120.563 39.4053C120.93 39.3502 121.063 39.3069 121.063 38.9048C121.033 35.7805 121.041 32.6545 121.041 29.5302ZM119.677 37.5987C119.657 37.558 119.639 37.5162 119.624 37.4736C119.624 37.4736 119.67 37.4519 119.694 37.4386C119.713 37.476 119.728 37.5151 119.74 37.5554C119.74 37.5554 119.704 37.5821 119.677 37.5987Z" fill="black"/>
<path d="M53.6558 33.4381C53.5741 30.8125 51.8977 28.9592 49.2855 28.6306C47.7141 28.4321 45.6991 28.5339 44.5598 28.5339C44.3029 28.5339 44.2896 28.659 44.2896 28.8558C44.2896 32.2476 44.2896 35.6394 44.2896 39.0311C44.2896 39.3397 44.3996 39.3964 44.6749 39.3964C45.2354 39.3964 45.9993 39.3964 46.6616 39.3964C47.2938 39.3964 47.9243 39.4165 48.5548 39.3964C50.6449 39.3214 52.258 38.4657 53.1571 36.5007C53.5925 35.5215 53.6875 34.4906 53.6558 33.4381ZM51.6358 36.2271C50.9786 37.4898 49.8843 38.0903 48.4998 38.1721C47.6991 38.2221 46.8918 38.1721 46.0877 38.2038C45.8125 38.2038 45.7892 38.0853 45.7908 37.8701C45.7908 36.5774 45.7908 35.283 45.7908 33.9885C45.7908 32.6941 45.8008 31.4347 45.7908 30.1519C45.7908 29.8383 45.8459 29.7049 46.1962 29.7199C47.1553 29.7633 48.1211 29.6648 49.0719 29.845C50.8701 30.1786 51.8877 31.2512 52.1145 33.0944C52.2446 34.1787 52.1496 35.2396 51.6358 36.2271Z" fill="black"/>
<path d="M132.6 39.3468C132.498 39.3701 132.47 39.3785 132.433 39.3835C131.265 39.5953 130.445 39.18 129.742 38.1825C128.826 36.8864 127.729 35.717 126.725 34.4793C126.523 34.2308 126.416 34.2374 126.131 34.3976C125.162 34.9464 125.035 35.5652 125.033 36.5911C125.033 37.1899 125.033 38.1691 125.06 38.9564C125.06 39.2667 125.01 39.3968 124.656 39.3935C123.55 39.3935 123.55 39.4035 123.55 38.2859C123.55 35.2099 123.55 32.1323 123.542 29.0547C123.542 28.666 123.59 28.5026 124.042 28.5209C125.043 28.5609 125.043 28.5326 125.043 29.5218V33.6586C125.836 32.9247 126.711 32.1573 127.53 31.35C128.394 30.4976 129.215 29.6002 130.051 28.7194C130.093 28.663 130.147 28.6169 130.209 28.5845C130.272 28.5521 130.341 28.5344 130.411 28.5326C130.912 28.5326 131.412 28.5326 132.008 28.5326C131.352 29.2115 130.768 29.8187 130.173 30.4225C129.369 31.2466 128.573 32.0806 127.746 32.8796C127.459 33.1549 127.434 33.31 127.707 33.6236C129.25 35.3951 130.766 37.1916 132.291 38.9798C132.401 39.0882 132.483 39.1983 132.6 39.3468Z" fill="black"/>
<path d="M40.0394 34.1672C38.1489 36.0443 36.2645 37.9281 34.3863 39.8186C34.2045 40.0005 34.091 40.0422 33.8959 39.837C33.4822 39.4033 33.0535 38.9829 32.6098 38.5809C32.3963 38.3858 32.5014 38.2823 32.6498 38.1339C33.9159 36.8828 35.1786 35.6318 36.4414 34.369C36.5164 34.294 36.6298 34.2506 36.6632 34.0938C36.5831 34.0087 36.4964 33.9036 36.3946 33.8052C35.1252 32.5341 33.8608 31.2564 32.5764 30.007C32.3245 29.7584 32.3095 29.62 32.5764 29.3814C33.0451 28.9611 33.4889 28.509 33.9259 28.047C34.0927 27.8802 34.1761 27.8802 34.3396 28.047C36.2301 29.9375 38.1289 31.828 40.0361 33.7185C40.2095 33.8919 40.2195 33.9887 40.0394 34.1672Z" fill="black"/>
<path d="M10.1875 38.5324C9.71211 38.9461 9.2734 39.3998 8.82969 39.8485C8.66288 40.0153 8.54778 40.0153 8.37264 39.8485C6.48214 37.9413 4.58664 36.043 2.68614 34.1537C2.51933 33.9869 2.51933 33.9018 2.68614 33.7416C4.60666 31.8456 6.51884 29.9456 8.42268 28.0418C8.47773 27.9868 8.54111 27.9417 8.6095 27.875C8.6879 27.9484 8.75796 28.0101 8.82302 28.0752C9.21335 28.4655 9.58867 28.8725 9.99068 29.2428C10.2309 29.4613 10.2426 29.5848 10.0007 29.8233C8.78132 31.0127 7.59531 32.2337 6.37427 33.4214C6.09237 33.6983 6.04066 33.8401 6.35926 34.1453C7.65703 35.4031 8.90309 36.6942 10.1842 37.9586C10.4127 38.1821 10.4527 38.3022 10.1875 38.5324Z" fill="black"/>
<path d="M64.719 38.9258C63.4813 35.8799 62.253 32.8301 61.0342 29.7764C60.5204 28.5053 60.6572 28.5053 59.2794 28.5287C59.1549 28.5273 59.0324 28.5601 58.9253 28.6237C58.8182 28.6872 58.7306 28.779 58.6722 28.889C57.2994 32.2852 55.9432 35.6264 54.5504 39.0143C54.4453 39.2711 54.4086 39.4196 54.7756 39.3846C55.0586 39.3587 55.3433 39.3587 55.6263 39.3846C55.8999 39.4096 56.0133 39.2861 56.1017 39.051C56.417 38.2169 56.7689 37.3829 57.0709 36.5488C57.0958 36.4364 57.1631 36.3379 57.2588 36.2739C57.3545 36.2099 57.4712 36.1853 57.5846 36.2052C58.2635 36.2235 58.9424 36.2052 59.6197 36.2052C60.3303 36.2052 61.0409 36.2202 61.7498 36.2052C61.8639 36.1866 61.9808 36.2131 62.0758 36.279C62.1707 36.345 62.2363 36.4454 62.2586 36.5588C62.4754 37.1827 62.7273 37.7932 62.9659 38.4104C63.3479 39.3946 63.3495 39.3762 64.4154 39.3996C64.8541 39.4046 64.8641 39.2845 64.719 38.9258ZM61.3245 35.0592C60.2202 35.0509 59.1159 35.0592 58.0116 35.0592C57.8182 35.0592 57.653 35.0592 57.7631 34.784C58.4037 33.1276 59.0859 31.4862 59.6664 29.733C60.2285 31.4779 60.9258 33.0942 61.5513 34.7373C61.6547 35.0109 61.5847 35.0609 61.3245 35.0592Z" fill="black"/>
<path d="M110.745 38.8892C109.464 35.7087 108.185 32.5293 106.908 29.3511C106.574 28.5354 106.574 28.5354 105.692 28.5354C105.358 28.5354 104.871 28.5137 104.715 28.9107C103.484 32.06 102.169 35.1777 100.896 38.3103C100.761 38.644 100.504 39.1444 100.563 39.2895C100.631 39.468 101.498 39.4013 101.625 39.3879C101.931 39.3529 102.061 39.2928 102.164 39.0126C102.473 38.1786 102.831 37.3445 103.138 36.5105C103.161 36.4129 103.22 36.3274 103.302 36.2708C103.385 36.2143 103.486 36.1909 103.585 36.2052C105.003 36.2163 106.422 36.2163 107.841 36.2052C107.94 36.1907 108.041 36.2143 108.123 36.2712C108.205 36.3282 108.263 36.4143 108.284 36.5121C108.523 37.161 108.785 37.8016 109.033 38.4471C109.402 39.3946 109.402 39.3946 110.409 39.3929C110.942 39.3846 110.945 39.3846 110.745 38.8892ZM107.36 35.0526C106.258 35.0392 105.155 35.0392 104.051 35.0526C103.707 35.0526 103.749 34.9308 103.84 34.6939C104.464 33.0676 105.143 31.4645 105.709 29.7214C106.124 30.9925 106.594 32.1568 107.055 33.3228C107.233 33.7765 107.4 34.2352 107.584 34.6856C107.682 34.9341 107.694 35.0659 107.36 35.0609V35.0526Z" fill="black"/>
<path d="M32.8169 27.0207C32.3565 27.451 31.8945 27.8831 31.4691 28.3551C31.2372 28.6053 31.1121 28.5369 30.9103 28.3334C29.7026 27.1041 28.4766 25.898 27.2705 24.6687C27.0437 24.4368 26.9169 24.4185 26.6817 24.6687C25.7476 25.6295 24.7918 26.5703 23.846 27.5177C23.7592 27.6045 23.6691 27.6846 23.5707 27.778C23.4823 27.6996 23.4039 27.6379 23.3455 27.5728C22.9869 27.2158 22.6516 26.8338 22.2663 26.5102C21.9443 26.2417 22.0594 26.0749 22.2913 25.843C23.3144 24.8332 24.3303 23.8185 25.3389 22.7987C25.8844 22.2499 26.4332 21.7061 26.9619 21.144C27.1521 20.9405 27.2622 20.9639 27.4473 21.144C29.2378 22.9466 31.0343 24.7426 32.8369 26.5319C33.0354 26.7354 33.0004 26.8472 32.8169 27.0207Z" fill="black"/>
<path d="M20.5799 41.9437C18.9563 43.5506 17.3438 45.1698 15.7425 46.8012C15.5756 46.968 15.4822 46.9446 15.3304 46.7912C13.5133 44.9741 11.694 43.1609 9.87247 41.3516C9.78907 41.2698 9.65896 41.2014 9.80575 41.053C10.3395 40.5175 10.8666 39.9754 11.3988 39.4383C11.4416 39.4018 11.4873 39.3688 11.5355 39.3398C11.6256 39.4232 11.7174 39.5067 11.8024 39.5901C13.0318 40.8128 14.2679 42.0271 15.4839 43.2598C15.7208 43.5017 15.8425 43.4867 16.0694 43.2598C17.0019 42.299 17.9627 41.3649 18.9051 40.4074C19.1103 40.1989 19.2388 40.1455 19.4589 40.3941C19.8026 40.7844 20.1829 41.1414 20.5599 41.5C20.7183 41.6501 20.7667 41.7552 20.5799 41.9437Z" fill="black"/>
<path d="M74.1902 28.5353C74.0234 28.964 73.8733 29.351 73.7165 29.7363C72.4554 32.8256 71.1966 35.9182 69.9399 39.0142C69.9055 39.1403 69.8261 39.2494 69.7167 39.321C69.6073 39.3926 69.4755 39.4217 69.3461 39.4028C68.2302 39.3878 68.2285 39.4028 67.8131 38.387C66.5398 35.2676 65.2665 32.1494 63.9932 29.0324C63.9348 28.8889 63.8881 28.7404 63.8164 28.5436C64.2918 28.5436 65.1659 28.5436 65.1659 28.5436C65.3794 28.5436 65.4261 28.6654 65.4845 28.8172C66.5771 31.6746 67.7864 34.4903 68.7873 37.3928C68.8423 37.5496 68.854 37.7264 69.0442 37.8732C69.4862 36.5237 69.9883 35.2276 70.5004 33.9315C71.1593 32.2634 71.8182 30.5953 72.4554 28.9189C72.5688 28.6203 72.7056 28.5369 73.0309 28.5286C73.1944 28.5236 73.7599 28.5353 74.1902 28.5353Z" fill="black"/>
<path d="M119.679 37.6016C119.659 37.561 119.641 37.5192 119.625 37.4764C119.648 37.4636 119.67 37.4519 119.694 37.4414C119.713 37.4787 119.729 37.5178 119.741 37.5582C119.741 37.5582 119.704 37.5849 119.679 37.6016Z" fill="black"/>
</g>
<defs>
<clipPath id="clip0_5626_14358">
<rect width="130.035" height="25.9153" fill="white" transform="translate(2.56445 21)"/>
</clipPath>
</defs>
</svg>
