<svg width="136" height="68" viewBox="0 0 136 68" fill="none" xmlns="http://www.w3.org/2000/svg">
<path d="M98.1531 41.9525C98.1531 42.6709 98.0133 42.9197 97.2364 42.9097C94.7638 42.8799 94.7638 42.9097 94.7638 40.4399C94.7638 35.036 94.7638 29.6327 94.7638 24.23C94.7638 22.3871 93.9649 21.7921 92.1674 22.2796C91.8179 22.3752 91.4844 22.5324 91.1429 22.6598C90.332 22.9623 90.0484 23.4917 90.0544 24.4012C90.1043 30.2344 90.0544 36.0675 90.1003 41.9027C90.1003 42.6988 89.8626 42.8819 89.1017 42.868C86.7889 42.8242 86.7889 42.868 86.7889 40.5454C86.7889 35.1414 86.7889 29.7388 86.7889 24.3375C86.7889 22.3612 85.99 21.7642 84.0966 22.2995C82.3371 22.7971 82.1094 23.0956 82.1094 24.8967C82.1094 30.5329 82.0854 36.167 82.1333 41.8012C82.1333 42.7107 81.8777 42.8938 81.0229 42.8699C78.746 42.8102 78.744 42.852 78.744 40.627C78.744 33.8306 78.76 27.0362 78.7261 20.2417C78.7261 19.4178 78.9258 19.0854 79.7626 19.2148C80.0609 19.2437 80.3612 19.2437 80.6594 19.2148C81.5601 19.177 82.5328 19.0396 82.0794 20.6676C83.6173 19.3859 85.1192 18.7849 86.8728 19.0058C87.8294 19.1252 88.7162 19.4576 89.2475 20.2974C89.629 20.8945 89.8806 20.7094 90.306 20.379C91.73 19.2705 93.3298 18.7312 95.1533 19.0576C96.6992 19.3382 97.6378 20.2716 97.9694 21.7801C98.0816 22.3322 98.1351 22.8946 98.1292 23.4578C98.1392 29.6234 98.1232 35.7889 98.1531 41.9525Z" fill="#0F1826"/>
<path d="M63.1967 22.958C62.9969 20.1717 60.9817 18.6035 58.2036 19.0194C57.2446 19.1616 56.3379 19.5452 55.5692 20.1339C55.2677 20.3608 54.8802 20.532 54.9122 19.9508C54.9561 19.1548 54.5127 19.1985 53.9774 19.2165C53.4796 19.2563 52.9794 19.2563 52.4815 19.2165C51.6826 19.113 51.4829 19.4155 51.4829 20.2115C51.5209 24.8526 51.5009 29.4937 51.5009 34.1427V46.4818C51.5009 49.1108 51.5009 49.0889 54.1832 49.0372C54.7823 49.0272 54.8902 48.8262 54.8822 48.2948C54.8542 46.4062 54.8662 44.5135 54.8822 42.6248C54.8822 42.3442 54.7384 41.9581 55.028 41.8049C55.3176 41.6516 55.5333 42.0298 55.771 42.179C57.4986 43.2597 59.328 43.5602 61.1735 42.6308C62.921 41.7512 63.2286 40.0675 63.2406 38.3022C63.2406 38.0375 63.2406 37.7728 63.2406 37.5061C63.2406 33.8256 63.2406 30.1451 63.2406 26.4647C63.2386 25.2765 63.2805 24.1123 63.1967 22.958ZM59.8992 37.6852C59.8992 39.55 59.1263 40.1889 57.2649 39.8744C56.8743 39.8 56.4923 39.6867 56.1245 39.5361C55.2457 39.1998 54.7903 38.6684 54.8403 37.6036C54.9401 35.4144 54.8702 33.2253 54.8702 31.046C54.8702 28.7295 54.8922 26.4089 54.8542 24.0924C54.8283 23.832 54.8843 23.57 55.0146 23.3429C55.1449 23.1157 55.3429 22.9345 55.5812 22.8246C56.2965 22.3987 57.1091 22.1617 57.9419 22.136C59.2501 22.136 59.8613 22.6714 59.8872 23.9789C59.9232 25.8338 59.9012 27.6886 59.9012 29.5514C59.9012 32.2521 59.9072 34.9687 59.8992 37.6832V37.6852Z" fill="#0F1826"/>
<path d="M76.6999 24.0625C76.6599 20.6215 74.8744 18.9736 71.4472 18.9497C66.8096 18.9179 65.2837 20.4324 65.2817 25.0695C65.2817 27.5691 65.2817 27.5492 67.7723 27.5253C68.3715 27.5253 68.6011 27.3781 68.5712 26.7512C68.5232 25.8257 68.5312 24.8943 68.5712 23.9649C68.6331 22.5838 69.3421 22.0086 70.9019 22.0066C72.4618 22.0046 73.1828 22.5658 73.2387 23.949C73.2866 25.1073 73.2207 26.2715 73.2726 27.4298C73.2986 28.009 73.0729 28.2398 72.5457 28.407C71.0577 28.8826 69.5758 29.3842 68.1118 29.9235C66.4261 30.5424 65.3756 31.7465 65.3277 33.5595C65.253 35.7095 65.2924 37.8619 65.4455 40.0077C65.5913 41.8745 66.7996 42.8875 68.665 43.0825C70.3887 43.2616 71.8606 42.6845 73.4284 41.4327C72.8692 43.1104 73.8698 42.8576 74.6747 42.8477C75.1421 42.8477 75.6094 42.8158 76.0728 42.8477C76.618 42.8954 76.7378 42.6486 76.7358 42.1571C76.7279 36.1308 76.7698 30.0947 76.6999 24.0625ZM72.4758 39.3589C71.8272 39.7005 71.1185 39.914 70.3886 39.9878C69.2502 40.0674 68.6231 39.5121 68.6011 38.3678C68.5752 37.0423 68.6011 35.7149 68.6011 34.3875C68.5792 33.9519 68.6968 33.5207 68.937 33.1561C69.1772 32.7916 69.5275 32.5126 69.9373 32.3595C70.822 31.9813 71.7348 31.6709 72.6315 31.3146C73.1209 31.1156 73.2806 31.2808 73.2707 31.7863C73.2487 32.8809 73.2707 33.9755 73.2707 35.0681C73.2707 36.0632 73.2227 37.0583 73.2866 38.0533C73.3206 38.728 73.051 39.0823 72.4758 39.3589Z" fill="#0F1826"/>
<path d="M47.146 35.191C46.3151 35.1711 45.8997 35.3144 46.0395 36.2518C46.0948 36.8135 46.0981 37.3791 46.0495 37.9414C45.9996 39.4539 45.3505 39.9992 43.6308 39.9953C41.9112 39.9913 41.2821 39.432 41.2601 37.8936C41.2382 36.3552 41.2921 34.775 41.2362 33.2187C41.2102 32.4804 41.4978 32.3451 42.1589 32.357C44.254 32.3928 46.3531 32.3391 48.4482 32.3888C49.1731 32.4048 49.3269 32.1659 49.3169 31.4893C49.277 29.1011 49.3169 26.7129 49.297 24.3247C49.269 20.6628 47.5674 18.9671 43.9065 18.9492H43.3073C39.6943 18.9592 37.9148 20.6886 37.8688 24.3227C37.8429 26.0123 37.8509 27.706 37.8549 29.3916C37.8549 29.9887 37.8549 30.5857 37.8549 31.1828C37.8549 31.555 37.8549 31.9271 37.8549 32.3013C37.8549 34.381 37.8289 36.4627 37.8668 38.5424C37.9148 41.0879 39.3787 42.686 41.9012 43.0542C43.0213 43.2233 44.1605 43.2233 45.2805 43.0542C47.5055 42.7138 48.8756 41.3764 49.1991 39.1634C49.2733 38.5693 49.3054 37.9708 49.295 37.3722C49.313 35.2089 49.305 35.2467 47.146 35.191ZM41.2921 24.046C41.336 22.6072 42.055 22.0798 43.8046 22.1016C45.3425 22.1215 45.9836 22.6987 46.0215 24.1396C46.0395 24.8342 46.0215 25.5327 46.0215 26.2233C46.0215 26.9835 45.9956 27.7458 46.0215 28.506C46.0455 29.0294 45.8478 29.1986 45.3345 29.1867C44.208 29.1588 43.0776 29.1588 41.9392 29.1867C41.4339 29.1986 41.2342 29.0434 41.2442 28.512C41.2981 27.0134 41.2481 25.5168 41.2921 24.0361V24.046Z" fill="#0F1826"/>
<path d="M33.6314 40.5321C33.196 40.5321 33.0522 40.2236 32.8485 40.0345C30.4678 37.8175 28.107 35.5766 25.7104 33.3754C25.225 32.9296 25.1272 32.45 25.0453 31.8291C24.8196 30.1195 25.4447 28.9393 26.7529 27.8209C29.0657 25.8307 31.2167 23.6634 33.6214 21.3906C33.6214 22.933 33.6334 24.2624 33.6214 25.5919C33.6214 25.9163 33.2998 26.0815 33.0881 26.2825C31.6701 27.6338 30.27 29.005 28.8121 30.3126C28.1969 30.8618 28.0451 31.1843 28.7721 31.8072C30.2521 33.0789 31.6302 34.472 33.0801 35.7935C33.271 35.9472 33.4219 36.1445 33.5199 36.3686C33.618 36.5928 33.6603 36.8372 33.6434 37.0811C33.6054 38.2255 33.6314 39.3718 33.6314 40.5321Z" fill="#0F1826"/>
<path d="M109.191 34.4865C107.016 36.222 105.087 38.2679 103.045 40.1585C102.886 40.3058 102.772 40.5426 102.39 40.5287C102.39 39.2231 102.39 37.9156 102.39 36.61C102.39 36.212 102.698 36.0428 102.932 35.814C104.431 34.4029 105.927 32.982 107.449 31.6048C107.913 31.1868 107.911 30.946 107.449 30.5281C105.935 29.135 104.469 27.6861 102.961 26.289C102.757 26.1215 102.596 25.9076 102.492 25.6652C102.387 25.4228 102.343 25.1589 102.362 24.8959C102.408 23.8113 102.374 22.7246 102.374 21.3594C105.266 24.0919 107.967 26.6433 110.663 29.1867C110.91 29.4216 110.904 29.6962 110.94 29.9967C111.168 31.8237 110.747 33.2447 109.191 34.4865Z" fill="#0F1826"/>
</svg>
