<svg width="28" height="28" viewBox="0 0 28 28" fill="none" xmlns="http://www.w3.org/2000/svg">
<circle cx="14" cy="14" r="14" fill="#BA8D5B"/>
<path d="M14.0002 7.33203C12.6816 7.33203 11.3927 7.72302 10.2964 8.45557C9.20004 9.18811 8.34555 10.2293 7.84097 11.4475C7.33638 12.6656 7.20436 14.0061 7.4616 15.2993C7.71883 16.5925 8.35377 17.7804 9.28612 18.7127C10.2185 19.6451 11.4064 20.28 12.6996 20.5373C13.9928 20.7945 15.3332 20.6625 16.5514 20.1579C17.7696 19.6533 18.8108 18.7988 19.5433 17.7025C20.2758 16.6062 20.6668 15.3172 20.6668 13.9987C20.6668 13.1232 20.4944 12.2563 20.1594 11.4475C19.8243 10.6386 19.3333 9.90371 18.7142 9.28465C18.0952 8.6656 17.3602 8.17453 16.5514 7.8395C15.7426 7.50447 14.8756 7.33203 14.0002 7.33203ZM13.3335 16.6654H12.0002V11.332H13.3335V16.6654ZM16.0002 16.6654H14.6668V11.332H16.0002V16.6654Z" fill="white"/>
</svg>
