<svg width="28" height="28" viewBox="0 0 28 28" fill="none" xmlns="http://www.w3.org/2000/svg">
<ellipse cx="14.3951" cy="14" rx="13.5758" ry="14" fill="#BA8D5B"/>
<path d="M18.0735 14.5479L11.4518 19.2759C11.3548 19.3451 11.2412 19.3857 11.1234 19.3931C11.0057 19.4005 10.8882 19.3746 10.7837 19.3181C10.6792 19.2615 10.5917 19.1766 10.5307 19.0725C10.4696 18.9683 10.4374 18.8489 10.4375 18.7272V9.27258C10.4374 9.1509 10.4696 9.03151 10.5307 8.92737C10.5917 8.82322 10.6792 8.73828 10.7837 8.68176C10.8882 8.62524 11.0057 8.59928 11.1234 8.60671C11.2412 8.61414 11.3548 8.65467 11.4518 8.72391L18.0735 13.4519C18.1594 13.5133 18.2296 13.5952 18.2781 13.6906C18.3265 13.786 18.3519 13.8922 18.3519 13.9999C18.3519 14.1076 18.3265 14.2138 18.2781 14.3092C18.2296 14.4047 18.1594 14.4866 18.0735 14.5479Z" fill="white"/>
</svg>
