<svg width="136" height="68" viewBox="0 0 136 68" fill="none" xmlns="http://www.w3.org/2000/svg">
<g clip-path="url(#clip0_5626_2115)">
<path d="M99.2431 42.7241C98.6755 42.7241 98.1077 42.7162 97.5404 42.7288C97.3645 42.7329 97.2915 42.6756 97.2388 42.5109C96.8937 41.4305 96.5331 40.3529 96.189 39.2713C96.1374 39.1086 96.0647 39.0651 95.8999 39.0669C93.7433 39.0725 91.5864 39.0725 89.4294 39.0669C89.2467 39.0669 89.1796 39.1302 89.1295 39.2949C88.807 40.3579 88.4664 41.4158 88.1486 42.4805C88.0885 42.6817 87.9985 42.7326 87.7983 42.7308C86.6793 42.7212 85.5603 42.7261 84.4416 42.7261C84.1696 42.7261 84.1693 42.7261 84.259 42.4738L88.9911 29.2107C89.3404 28.2324 89.6895 27.2543 90.0385 26.2765C90.3443 25.4191 90.9318 25.005 91.8382 25.0047C92.7303 25.0047 93.6221 25.0103 94.5139 25C94.6921 24.998 94.761 25.0585 94.8196 25.2196C96.913 30.9699 99.0096 36.7188 101.11 42.4665C101.203 42.7232 101.203 42.7235 100.921 42.7235L99.2431 42.7241ZM92.6717 28.6196C92.6374 28.678 92.6321 28.6844 92.6295 28.6917C91.8342 31.0915 91.0386 33.4913 90.2426 35.8909C90.1696 36.1108 90.3191 36.0661 90.4308 36.0661C91.9145 36.0661 93.3978 36.0637 94.8815 36.0705C95.0811 36.0705 95.128 36.0392 95.0591 35.8328C94.4318 33.9542 93.8156 32.0719 93.1953 30.1913C93.0276 29.6805 92.8561 29.1727 92.6717 28.6196Z" fill="#EC1D25"/>
<path d="M74.1279 30.7776C74.4061 30.3688 74.6703 30.0274 75.0036 29.7459C75.9868 28.9148 77.1504 28.6655 78.4019 28.7107C80.6125 28.7928 83.0279 30.678 83.3354 33.3561C83.3941 33.828 83.426 34.3028 83.4309 34.7783C83.4309 37.3447 83.4326 39.911 83.4359 42.477C83.4359 42.6677 83.4066 42.7349 83.1935 42.7323C82.188 42.7188 81.1824 42.7206 80.1772 42.7323C79.9899 42.7343 79.955 42.6823 79.9553 42.506C79.9617 40.206 79.967 37.9061 79.9553 35.6061C79.9512 34.8402 79.8934 34.0763 79.5235 33.3745C79.067 32.509 78.4145 31.9036 77.3899 31.8315C75.8241 31.7211 74.7582 32.4862 74.3302 34.0071C74.1949 34.4889 74.1268 34.987 74.1276 35.4873C74.1276 37.8196 74.1247 40.152 74.1329 42.4841C74.1329 42.6844 74.0881 42.7349 73.8846 42.7326C72.8551 42.7206 71.8249 42.7235 70.7953 42.7308C70.6376 42.7308 70.5954 42.6917 70.5957 42.5328C70.5998 36.7627 70.5998 30.9926 70.5957 25.2226C70.5957 25.0582 70.6332 24.9998 70.8088 25.0041C71.2949 25.0161 71.7815 25.0082 72.2682 25.0082C73.3801 25.0082 74.123 25.7435 74.1265 26.8567C74.1303 28.0671 74.1265 29.2775 74.1265 30.4882L74.1279 30.7776Z" fill="#010101"/>
<path d="M51.062 36.8085C49.6507 36.8085 48.2395 36.8123 46.8282 36.8041C46.621 36.8041 46.5735 36.852 46.5996 37.0605C46.6488 37.453 46.6896 37.8452 46.8247 38.2198C47.3014 39.5412 48.272 40.014 49.4754 39.9854C49.9628 39.9788 50.4416 39.8572 50.8726 39.6306C51.0872 39.5167 51.2763 39.3701 51.4041 39.1806C51.7409 38.6812 52.2138 38.4885 52.7922 38.4882C53.5951 38.4882 54.3981 38.4929 55.2011 38.4841C55.3854 38.4821 55.3711 38.5571 55.333 38.6847C54.6614 40.9359 53.1616 42.3139 50.8679 42.8136C49.6164 43.0855 48.3512 43.0723 47.1155 42.7082C45.4618 42.2208 44.2619 41.1628 43.6237 39.5859C42.6103 37.0827 42.5827 34.5229 43.6293 32.0279C44.4428 30.0845 46.0124 29.0303 48.1081 28.7736C49.3535 28.6218 50.5856 28.7033 51.7726 29.1349C53.6473 29.8161 54.7176 31.2082 55.2436 33.073C55.566 34.2201 55.6062 35.3946 55.5863 36.5752C55.583 36.7624 55.5077 36.8141 55.3195 36.8129C53.9009 36.8047 52.4803 36.8085 51.062 36.8085ZM49.2312 34.4835H51.3235C51.8629 34.4835 51.8702 34.4835 51.7858 33.9593C51.6949 33.3957 51.5293 32.8575 51.1212 32.4315C50.2837 31.5572 48.6367 31.4494 47.6359 32.1961C46.9405 32.7147 46.6825 33.4462 46.5978 34.2694C46.5788 34.4537 46.6312 34.4864 46.7983 34.4849C47.6092 34.4797 48.4201 34.4835 49.2312 34.4835Z" fill="#010101"/>
<path d="M36.6737 35.4373C36.6737 33.105 36.6705 30.7723 36.679 28.44C36.679 28.2151 36.6383 28.1433 36.3941 28.1453C34.821 28.1582 33.2479 28.1491 31.6743 28.1555C31.4951 28.1555 31.4257 28.1263 31.4283 27.924C31.4409 27.0202 31.4386 26.1161 31.4298 25.2123C31.4298 25.0394 31.4799 24.9997 31.6476 25C35.7023 25.0047 39.7569 25.0062 43.8115 25.0047C44.8038 25.0047 45.6112 25.8247 45.6276 26.8377C45.6332 27.1925 45.6159 27.5484 45.6332 27.9027C45.6431 28.1018 45.5901 28.1582 45.3846 28.1567C43.9979 28.1474 42.6113 28.1518 41.2247 28.1518C40.9902 28.1518 40.7556 28.1585 40.5193 28.1494C40.3889 28.1442 40.3435 28.1921 40.3558 28.3162C40.3587 28.3726 40.3587 28.4291 40.3558 28.4855C40.3558 33.1424 40.3576 37.7992 40.3613 42.4557C40.3613 42.6811 40.2995 42.7299 40.0828 42.7275C39.0288 42.7163 37.9747 42.7163 36.9203 42.7275C36.7242 42.7296 36.6667 42.6908 36.6673 42.4831C36.6772 40.1344 36.6737 37.7857 36.6737 35.4373Z" fill="#010101"/>
<path d="M67.3024 33.1925C66.7996 33.1925 66.2963 33.1822 65.7941 33.1971C65.5848 33.2036 65.4649 33.151 65.3646 32.9527C64.5584 31.3592 62.1546 31.4009 61.2209 32.4385C60.7612 32.9486 60.5416 33.5689 60.4329 34.2268C60.2206 35.5117 60.2016 36.7995 60.6017 38.0563C61.2358 40.049 63.102 40.2911 64.5197 39.7316C64.8463 39.6026 65.1043 39.3888 65.3189 39.1216C65.6727 38.6809 66.1242 38.4748 66.6926 38.4841C67.4709 38.4967 68.2496 38.492 69.0279 38.4841C69.2135 38.4821 69.2442 38.5279 69.1906 38.7031C68.4612 41.0834 66.8424 42.4556 64.3981 42.8714C63.2354 43.0694 62.0713 43.0408 60.9347 42.6933C59.1318 42.1422 57.9235 40.9318 57.3152 39.1928C56.5424 36.982 56.521 34.725 57.2888 32.5033C58.1037 30.1464 60.1063 28.7655 62.6116 28.7176C63.6901 28.6965 64.7452 28.792 65.7598 29.1804C67.4056 29.8103 68.3953 31.0417 68.9666 32.6531C69.1575 33.191 69.1513 33.1933 68.5917 33.1933L67.3024 33.1925Z" fill="#010101"/>
<path d="M110.294 32.794C110.294 30.2847 110.297 27.7753 110.289 25.2663C110.289 25.0517 110.341 24.9933 110.556 25.0006C111.066 25.0175 111.577 25.0059 112.088 25.0061C113.096 25.0061 113.87 25.7695 113.878 26.7766C113.884 27.4544 113.891 28.1325 113.873 28.8097C113.867 29.0433 113.946 29.0845 114.157 29.0792C114.699 29.0652 115.241 29.0792 115.786 29.071C115.943 29.0687 115.995 29.1093 115.991 29.2719C115.981 29.7801 115.958 30.2905 115.993 30.7966C116.067 31.8382 115.28 32.69 114.174 32.6705C113.925 32.6658 113.871 32.7329 113.873 32.9741C113.884 34.8784 113.879 36.7824 113.879 38.6866C113.879 39.3504 114.157 39.6348 114.832 39.6657C114.994 39.673 115.158 39.6684 115.316 39.6982C115.749 39.7805 115.961 40.0013 115.975 40.4393C115.996 41.1568 115.981 41.8752 115.99 42.5932C115.99 42.7299 115.915 42.7258 115.822 42.7319C114.778 42.7982 113.734 42.7643 112.691 42.696C112.417 42.6779 112.14 42.6709 111.87 42.6084C110.984 42.4022 110.451 41.7674 110.334 40.7792C110.305 40.539 110.291 40.2972 110.292 40.0553C110.294 37.6349 110.295 35.2144 110.294 32.794Z" fill="#EC1D25"/>
<path d="M105.266 38.8554C105.266 40.074 105.262 41.2929 105.269 42.5115C105.269 42.6759 105.235 42.7311 105.058 42.7299C103.979 42.7215 102.901 42.7215 101.822 42.7299C101.667 42.7299 101.619 42.6943 101.62 42.5325C101.628 40.208 101.605 37.8833 101.64 35.5594C101.663 33.9857 102.063 32.5128 103.089 31.2638C103.928 30.2417 105.038 29.6697 106.3 29.3432C107.264 29.0935 108.244 29.003 109.237 29.017C109.36 29.0188 109.405 29.0483 109.405 29.1788C109.4 30.2926 109.4 31.4064 109.405 32.5204C109.405 32.69 109.324 32.6927 109.197 32.6956C108.638 32.7061 108.076 32.648 107.521 32.7327C106.071 32.9537 105.346 33.7623 105.272 35.225C105.27 35.2732 105.265 35.3217 105.265 35.371C105.265 36.5317 105.266 37.6932 105.266 38.8554Z" fill="#EC1D25"/>
<path d="M25.7309 36.1789C25.7309 34.0883 25.7341 31.9981 25.7256 29.9075C25.7256 29.6955 25.7757 29.6412 25.9894 29.6447C27.0923 29.6567 28.1954 29.6529 29.2983 29.647C29.449 29.647 29.5035 29.6748 29.5035 29.8415C29.4992 34.0709 29.4994 38.2998 29.5041 42.5282C29.5041 42.683 29.4683 42.7312 29.3059 42.73C28.1869 42.7227 27.0677 42.721 25.9484 42.73C25.7561 42.7321 25.7268 42.6684 25.7271 42.4964C25.7327 40.3917 25.734 38.2859 25.7309 36.1789Z" fill="#EC1D25"/>
<path d="M23.8146 31.5588C23.8146 32.1154 23.8093 32.6723 23.8178 33.2285C23.8202 33.3862 23.7944 33.4543 23.6126 33.4531C22.4778 33.4443 21.3427 33.4461 20.2079 33.4531C20.0546 33.4531 19.9983 33.4195 20 33.2548C20.0088 32.521 19.9953 31.7866 20.0062 31.0524C20.0203 30.1209 20.4873 29.6615 21.4251 29.6507C22.1547 29.6429 22.8844 29.6557 23.6138 29.6446C23.7955 29.642 23.8219 29.7074 23.819 29.8657C23.8093 30.4293 23.8146 30.994 23.8146 31.5588Z" fill="#EC1D25"/>
<path d="M21.9095 42.7243C21.342 42.7243 20.7741 42.7199 20.2069 42.7272C20.0577 42.7286 19.999 42.7009 19.999 42.5327C20.0072 41.4271 20.0072 40.3216 19.999 39.2162C19.999 39.0533 20.0515 39.0156 20.2063 39.0156C21.3414 39.0215 22.4766 39.0215 23.6119 39.0156C23.7658 39.0156 23.82 39.051 23.8188 39.2145C23.8118 40.3201 23.8118 41.4257 23.8188 42.5312C23.8188 42.6986 23.7602 42.7278 23.6116 42.7257C23.0446 42.719 22.4771 42.7243 21.9095 42.7243Z" fill="#EC1D25"/>
<path d="M27.5965 28.1524H25.9205C25.8246 28.1524 25.7241 28.1752 25.7261 28.0175C25.734 27.4131 25.705 26.8068 25.7443 26.2047C25.7947 25.4288 26.2356 25.0255 27.0207 25.0074C27.7891 24.9913 28.5589 25.0071 29.3284 25.0024C29.4554 25.0024 29.4958 25.0413 29.4952 25.168C29.4908 26.1112 29.4894 27.0545 29.4952 27.9977C29.4952 28.1609 29.4073 28.1542 29.2968 28.1539C28.7304 28.1524 28.1634 28.1524 27.5965 28.1524Z" fill="#EC1D25"/>
</g>
<defs>
<clipPath id="clip0_5626_2115">
<rect width="96" height="18" fill="white" transform="translate(20 25)"/>
</clipPath>
</defs>
</svg>
