<svg width="136" height="68" viewBox="0 0 136 68" fill="none" xmlns="http://www.w3.org/2000/svg">
<g clip-path="url(#clip0_5626_25638)">
<path d="M21.9998 45.3747C22.4593 45.3393 22.93 45.33 23.3766 45.2631C24.3607 45.118 24.904 44.5189 25.0287 43.5496C25.103 43.0019 25.144 42.4502 25.1514 41.8975C25.1514 36.8482 25.1756 31.8007 25.1366 26.7514C25.1366 25.8733 25.3561 25.5273 26.2696 25.6147C27.0705 25.6845 27.8761 25.6845 28.677 25.6147C29.4417 25.5552 29.6073 25.8696 29.6073 26.5673C29.5831 30.4463 29.5961 34.3235 29.5942 38.2026C29.5942 39.9273 29.6166 41.6519 29.5756 43.3747C29.477 47.5477 27.3803 49.624 23.1942 49.7487C22.7942 49.7598 22.3961 49.7914 21.9961 49.8156L21.9998 45.3747Z" fill="black"/>
<path d="M91.0235 33.5867C90.6012 31.4657 89.5091 30.1206 87.5426 29.609C85.7249 29.1383 84.1751 29.6871 82.9454 31.0639C81.4142 32.7755 81.5072 35.4434 83.1091 37.1197C83.8775 37.9396 84.925 38.4422 86.0454 38.5286C87.1658 38.615 88.2779 38.279 89.163 37.5867C89.6655 37.1769 90.1421 36.7364 90.59 36.2676C93.4663 33.3839 96.3109 30.463 99.2244 27.6164C101.757 25.1402 104.845 24.4164 108.207 25.3709C111.569 26.3253 113.65 28.6434 114.506 32.0202C114.666 32.6467 114.751 33.29 114.759 33.9364C114.787 36.4927 114.759 39.0509 114.784 41.609C114.784 42.2137 114.597 42.4332 113.991 42.4127C113.003 42.3774 112.011 42.3774 111.024 42.4127C110.408 42.4332 110.229 42.1895 110.237 41.5978C110.261 39.1643 110.25 36.729 110.237 34.2937C110.237 32.1281 109.193 30.4871 107.373 29.7523C105.513 29.0081 103.695 29.4323 102.142 30.9913C99.0923 34.0555 96.0282 37.103 92.9993 40.1857C89.0923 44.1578 82.6216 43.7616 79.3044 39.6109C77.1686 36.9411 76.6589 33.9271 77.8775 30.7569C79.1072 27.5532 81.5109 25.6109 84.9472 25.0602C88.7314 24.4555 92.3723 26.1243 94.2644 29.2257C94.577 29.7355 94.5733 30.0685 94.1249 30.4927C93.0979 31.4639 92.1175 32.4871 91.0235 33.5867Z" fill="black"/>
<path d="M45.5085 27.221L45.6945 25.6861H50.102V42.475H45.6964C45.6425 42.0061 45.5922 41.5633 45.5104 40.9345C43.2145 42.8917 40.6843 43.3959 37.9252 42.6089C36.0648 42.0768 34.6378 40.9345 33.555 39.355C31.1029 35.7791 31.4359 30.8768 34.3606 27.7419C35.045 26.982 35.8725 26.3645 36.7957 25.9246C37.7189 25.4847 38.7198 25.2311 39.7411 25.1782C41.8713 25.0443 43.7671 25.6489 45.5085 27.221ZM40.9987 38.6163C43.7057 38.6257 45.6313 36.7112 45.6071 34.0377C45.5848 31.4163 43.6592 29.4666 41.0601 29.4331C38.4611 29.3996 36.4611 31.394 36.4666 34.0694C36.4722 36.7447 38.3215 38.607 40.9987 38.6163Z" fill="black"/>
<path d="M59.3094 25.5956C60.3978 25.5956 61.2555 25.6197 62.1113 25.5956C62.7197 25.5732 63.0229 25.7295 62.9838 26.4142C62.9345 27.3382 62.9345 28.2641 62.9838 29.1881C63.0136 29.8188 62.755 29.99 62.169 29.9658C61.3076 29.9304 60.4462 29.9565 59.4322 29.9565V31.097C59.4322 34.5183 59.4006 37.9397 59.4545 41.3611C59.4694 42.2523 59.1643 42.4886 58.3383 42.429C57.5333 42.3663 56.7246 42.3663 55.9197 42.429C55.0285 42.5072 54.8313 42.1295 54.8406 41.3128C54.8759 37.9639 54.8573 34.5946 54.8536 31.2346C54.8536 29.9788 54.8536 29.9788 53.5717 29.9751C52.3438 29.9751 52.3438 29.9751 52.342 28.7863C52.342 27.9844 52.3624 27.1825 52.342 26.3825C52.3234 25.8244 52.528 25.6383 53.0973 25.6235C54.6992 25.59 54.6992 25.5658 54.9299 23.9286C55.3969 20.643 57.8452 18.5481 61.3485 18.4402C61.8397 18.4253 62.3308 18.4402 62.8945 18.4402V22.6821C61.7987 22.8681 60.4759 22.6821 59.8006 23.8746C59.5476 24.3267 59.5048 24.8849 59.3094 25.5956Z" fill="black"/>
<path d="M64.437 29.9669V25.6264C65.1068 25.6264 65.7393 25.593 66.3775 25.6264C67.0752 25.673 67.3952 25.4646 67.3672 24.6962C67.3356 23.8795 67.1514 22.8357 67.5663 22.2999C67.9812 21.7641 69.0547 21.7083 69.8491 21.4609C70.4891 21.2618 71.1366 21.0888 71.8956 20.8711C71.8956 22.2218 71.9291 23.4497 71.8826 24.6739C71.8547 25.3697 72.1189 25.6153 72.7905 25.5837C73.4993 25.5502 74.2119 25.5948 74.9226 25.5744C75.4249 25.5595 75.6575 25.7381 75.6463 26.2664C75.6221 27.2525 75.6166 28.2385 75.6463 29.2227C75.6649 29.8181 75.3821 29.9557 74.8556 29.9371C74.0835 29.9111 73.3096 29.9483 72.5375 29.926C72.0556 29.913 71.8863 30.112 71.89 30.579C71.9049 32.672 71.8807 34.7669 71.9049 36.8599C71.9161 37.8311 72.3924 38.3055 73.3933 38.3725C74.0928 38.419 74.798 38.3725 75.6259 38.3725C75.6259 39.6748 75.6463 40.8711 75.6017 42.0599C75.6017 42.2311 75.291 42.5027 75.0938 42.5362C73.358 42.8283 71.624 42.7464 69.9924 42.0878C68.0445 41.3009 67.4361 39.593 67.3765 37.6823C67.3059 35.405 67.3338 33.1241 67.3598 30.8469C67.3598 30.1827 67.1738 29.8813 66.4668 29.9334C65.8268 30.0041 65.1812 29.9669 64.437 29.9669Z" fill="black"/>
<path d="M101.047 34.4258C101.047 37.0751 101.06 39.5569 101.023 42.0369C101.023 42.223 100.675 42.5411 100.48 42.5486C99.3077 42.5988 98.1319 42.6044 96.9617 42.5486C96.7515 42.5374 96.4036 42.1765 96.3868 41.9588C96.3353 41.13 96.3285 40.299 96.3663 39.4695C96.3592 39.2563 96.4248 39.047 96.5524 38.876C98.0017 37.4193 99.4659 35.9867 101.047 34.4258Z" fill="black"/>
<path d="M30.1057 21.0506C30.0861 21.7811 29.7846 22.4756 29.2644 22.9889C28.7443 23.5021 28.0457 23.7942 27.315 23.8041C26.9533 23.8066 26.5946 23.7369 26.2601 23.5991C25.9257 23.4613 25.622 23.2582 25.367 23.0016C25.112 22.745 24.9107 22.4401 24.7749 22.1048C24.6392 21.7695 24.5717 21.4104 24.5764 21.0487C24.5913 20.3187 24.8858 19.6222 25.3992 19.1029C25.9126 18.5836 26.6056 18.2812 27.3355 18.258C28.7662 18.2394 30.1001 19.5827 30.1057 21.0506Z" fill="black"/>
<path d="M99.706 24.9055L96.3758 28.2097C96.3758 27.1623 96.3553 26.2153 96.4 25.272C96.4 25.1418 96.733 24.9297 96.919 24.9223C97.7972 24.8813 98.679 24.9055 99.706 24.9055Z" fill="black"/>
</g>
<defs>
<clipPath id="clip0_5626_25638">
<rect width="93.0233" height="32" fill="white" transform="translate(22 18)"/>
</clipPath>
</defs>
</svg>
