<svg width="136" height="68" viewBox="0 0 136 68" fill="none" xmlns="http://www.w3.org/2000/svg">
<g clip-path="url(#clip0_5626_12980)">
<path d="M59.3671 55.0016C58.9382 54.8912 58.5072 54.7887 58.0805 54.6691C56.9494 54.3515 56.0683 53.6981 55.7868 52.5445C55.3858 50.9017 56.2285 49.0156 57.896 48.4811C58.4435 48.3052 59.0332 48.2295 59.6098 48.182C60.2445 48.1297 60.8863 48.1516 61.5248 48.1626C61.8428 48.1677 61.9696 48.068 61.923 47.7367C61.8284 47.0473 61.4264 46.6147 60.7117 46.6238C60.0105 46.6327 59.3098 46.7431 58.6098 46.8192C58.2459 46.8584 57.8832 46.9125 57.5223 46.974C57.2573 47.019 57.1087 46.9186 57.0526 46.6643C56.9552 46.2208 56.8247 45.7821 56.7748 45.3321C56.7561 45.1648 56.8869 44.8548 57.0128 44.8168C59.0537 44.202 61.1179 43.8582 63.1843 44.6811C64.1116 45.0504 64.6346 45.7833 64.7666 46.765C64.8421 47.2981 64.8858 47.8352 64.8974 48.3734C64.9195 49.9638 64.9155 51.5549 64.9198 53.1459C64.9219 53.9229 64.8113 54.1401 64.0764 54.3768C63.4361 54.583 62.7631 54.6877 62.1053 54.8407C61.8979 54.8891 61.693 54.9487 61.4868 55.0032L59.3671 55.0016ZM61.912 51.2826H61.9135C61.9135 51.0006 61.9368 50.7155 61.9019 50.4375C61.8887 50.3316 61.7414 50.1567 61.6568 50.1582C60.9963 50.1704 60.3309 50.1765 59.6787 50.2668C59.1662 50.338 58.8111 50.8257 58.7817 51.3295C58.7486 51.8919 58.9753 52.3169 59.5516 52.4517C60.065 52.5734 60.6217 52.5837 61.1513 52.543C61.912 52.4855 61.9089 52.4468 61.9108 51.6851C61.9123 51.5515 61.912 51.4171 61.912 51.2826Z" fill="black"/>
<path d="M89.8004 54.9984C89.4542 54.8926 89.1068 54.7901 88.7619 54.6805C87.1348 54.1634 86.247 52.9976 85.9649 51.3871C85.8178 50.5478 85.8117 49.6792 85.7973 48.8232C85.7667 46.735 87.4084 44.7789 89.4717 44.3731C90.8123 44.1094 92.114 44.1297 93.3495 44.7868C94.6022 45.4537 95.282 46.5449 95.5246 47.8853C95.6744 48.7103 95.7198 49.5636 95.7185 50.4042C95.7158 52.4899 94.3139 54.2452 92.2803 54.7901C92.0242 54.8585 91.7687 54.9288 91.5126 54.9984H89.8004ZM88.7689 49.5919C88.8388 50.0409 88.9052 50.4906 88.9797 50.939C89.1142 51.7464 89.7523 52.3868 90.4664 52.4376C91.3971 52.5036 92.1244 52.0165 92.4001 51.1623C92.7466 50.0887 92.72 49.0139 92.3802 47.954C92.1887 47.3559 91.8288 46.8512 91.1367 46.7591C90.3843 46.6587 89.7364 46.8686 89.3075 47.5403C88.9077 48.1658 88.8143 48.8636 88.768 49.5919H88.7689Z" fill="black"/>
<path d="M81.151 54.9997C80.8474 54.8959 80.5435 54.7931 80.2405 54.6879C79.4746 54.4223 78.9367 53.924 78.8745 53.1038C78.767 51.6822 78.7133 50.2557 78.6665 48.8305C78.6469 48.2391 78.6944 47.644 78.7277 47.0523C78.7431 46.7816 78.627 46.6928 78.3712 46.6955C78.0608 46.6989 77.7416 46.7223 77.4423 46.6608C76.8164 46.5327 77.0646 46.0025 77.0382 45.6289C77.0152 45.3086 76.9141 44.8988 77.4558 44.8188C77.7073 44.7823 77.9423 44.6363 78.1935 44.5982C78.7109 44.5198 78.8463 44.1991 78.8435 43.74C78.8414 43.3899 78.8399 43.0331 78.9048 42.692C78.9404 42.5095 79.084 42.2661 79.2418 42.2053C79.845 41.9698 80.4712 41.7903 81.0931 41.6042C81.4362 41.5013 81.6402 41.6002 81.6353 42.0045C81.628 42.664 81.6577 43.3245 81.6448 43.984C81.6372 44.368 81.772 44.5103 82.1721 44.489C82.6999 44.461 83.2321 44.482 83.7599 44.5194C83.8714 44.5271 84.0561 44.6831 84.0635 44.7814C84.0996 45.263 84.0895 45.7485 84.0911 46.2325C84.0911 46.554 83.9192 46.6888 83.6009 46.683C83.0847 46.6751 82.5679 46.6885 82.0517 46.6776C81.7557 46.6712 81.6442 46.7859 81.6461 47.0849C81.6553 48.5147 81.6418 49.9445 81.6491 51.3743C81.6528 52.1547 81.9634 52.4449 82.7606 52.4114C83.1251 52.3959 83.4866 52.3165 83.8512 52.2897C84.4268 52.2462 84.5138 52.2897 84.6453 52.8373C84.7448 53.2529 84.777 53.6867 84.811 54.115C84.8355 54.4217 84.6885 54.6298 84.3597 54.6821C84.039 54.7329 83.7182 54.7858 83.4005 54.8509C83.2189 54.8883 83.043 54.9522 82.8644 55.003L81.151 54.9997Z" fill="black"/>
<path d="M57.841 34.5302C58.17 34.0161 58.476 33.5457 58.7747 33.0699C61.4496 28.8144 64.1237 24.5581 66.7972 20.3011C68.0805 18.2586 69.3739 16.2219 70.6422 14.1702C71.0157 13.5658 71.5613 13.2323 72.2046 13.0246C72.6335 12.8858 73.4221 13.3562 73.6932 13.891C74.4417 15.3658 75.1872 16.8422 75.9296 18.3201C77.6498 21.7285 79.3703 25.1369 81.091 28.5453C82.5786 31.4987 84.0631 34.4537 85.5445 37.4105C85.7436 37.806 85.9675 38.1923 86.1412 38.5991C86.3149 39.0058 86.2175 39.2154 85.7773 39.233C84.7473 39.2738 83.7146 39.2677 82.6831 39.244C82.2597 39.234 81.9604 38.9626 81.7702 38.589C81.2825 37.6309 80.7959 36.6725 80.3104 35.7136C78.554 32.2477 76.7976 28.7818 75.0411 25.3158C74.0982 23.4579 73.1418 21.6071 72.204 19.7462C72.0407 19.4216 71.9261 19.4724 71.7681 19.7264C71.0048 20.9482 70.2403 22.17 69.4744 23.3919C67.7131 26.1988 65.9515 29.0063 64.1898 31.8144C62.8183 34.0078 61.4633 36.2116 60.0884 38.4019C59.8825 38.7296 59.6203 39.0317 59.3436 39.3048C58.9181 39.7253 58.3743 39.7916 57.8802 39.4995C57.2907 39.15 56.7356 38.7308 56.2109 38.2885C53.6543 36.1331 51.1134 33.9604 48.5658 31.7935C48.0821 31.3825 48.0144 31.3922 47.7197 31.9742C46.9489 33.4977 46.1946 35.0294 45.4254 36.5538C44.3293 38.7256 43.2197 40.8916 42.126 43.064C40.3767 46.5347 38.6305 50.0069 36.8873 53.4807C36.7809 53.6977 36.6628 53.9089 36.5338 54.1134C36.3092 54.4615 36.0044 54.6787 35.5627 54.6747C34.5983 54.6662 33.6326 54.6863 32.6695 54.6586C32.1686 54.6443 32.0745 54.5065 32.2767 54.0547C32.6943 53.1247 33.1446 52.2081 33.6032 51.2967C35.0296 48.462 36.4617 45.63 37.8995 42.8006C39.5091 39.6236 41.1195 36.4471 42.7307 33.2713C43.7074 31.3414 44.6736 29.4078 45.6524 27.4779C45.7813 27.2258 45.9347 26.9869 46.1104 26.7645C46.7277 25.9811 47.5334 25.8558 48.3115 26.4782C49.3682 27.3239 50.3905 28.2122 51.4219 29.089C53.4426 30.8066 55.4614 32.5266 57.4782 34.2491C57.5689 34.3276 57.6682 34.3972 57.841 34.5302Z" fill="black"/>
<path d="M70.4414 47.8439C70.5455 47.6893 70.6381 47.5257 70.7554 47.3821C71.3191 46.6909 71.9146 46.024 72.4492 45.3134C72.887 44.7302 73.4182 44.4522 74.1535 44.4948C74.7355 44.5282 75.3216 44.492 75.9055 44.5054C76.0694 44.5094 76.2318 44.5796 76.5066 44.6472C76.195 45.0515 75.9551 45.3855 75.6917 45.701C75.1032 46.4071 74.4969 47.0973 73.9173 47.8113C73.8318 47.9169 73.7947 48.146 73.8517 48.2676C74.5337 49.7422 75.2392 51.2064 75.9349 52.6754C76.1761 53.1851 76.4102 53.698 76.6371 54.2141C76.7713 54.5184 76.6536 54.6899 76.3258 54.6951C75.5651 54.707 74.8042 54.7039 74.0435 54.7109C73.7145 54.714 73.5184 54.547 73.3928 54.2579C72.9388 53.2127 72.4804 52.169 72.0176 51.127C71.9156 50.8976 71.7817 50.6822 71.6193 50.381C70.9947 51.0923 70.1761 51.5815 70.2214 52.6362C70.2438 53.1613 70.2383 53.6882 70.2352 54.2141C70.2334 54.5427 70.0934 54.7566 69.7236 54.752C69.1256 54.745 68.527 54.7547 67.9296 54.7325C67.3475 54.7109 67.2556 54.5944 67.2538 54.0274C67.2446 49.8864 67.2344 45.7454 67.2232 41.6044C67.2232 41.4155 67.2176 41.2266 67.2232 41.038C67.2323 40.755 67.3843 40.5616 67.6658 40.5549C68.4127 40.5375 69.1602 40.5406 69.9074 40.5549C70.2337 40.5606 70.2349 40.822 70.2352 41.0577C70.2364 42.2853 70.2364 43.513 70.2352 44.7406C70.2352 45.6039 70.2352 46.4673 70.2374 47.3307C70.2374 47.4679 70.2591 47.6044 70.2711 47.742L70.4414 47.8439Z" fill="black"/>
<path d="M45.4825 50.7656C45.435 49.3249 45.3367 47.9364 45.36 46.5516C45.379 45.4692 45.4739 44.3753 45.6731 43.3117C45.8964 42.1195 47.0418 41.2172 48.3736 41.1798C50.5042 41.119 52.638 41.1579 54.7702 41.1463C55.0505 41.1448 55.174 41.272 55.1798 41.5269C55.1933 42.1049 55.2028 42.6851 55.2012 43.264C55.2012 43.5414 55.0631 43.7255 54.765 43.7507C54.4669 43.776 54.1707 43.817 53.8738 43.8149C52.5966 43.8055 51.3197 43.7656 50.0444 43.7693C48.7691 43.7729 48.5203 44.033 48.5151 45.2904C48.5151 45.587 48.5325 45.8848 48.5114 46.1799C48.4897 46.4862 48.6324 46.5951 48.9152 46.5933C49.6354 46.5884 50.355 46.5799 51.0756 46.5854C52.0253 46.593 52.975 46.6207 53.9262 46.6228C54.2571 46.6228 54.4194 46.8008 54.4237 47.0813C54.4335 47.6453 54.413 48.2094 54.3624 48.7712C54.3514 48.8901 54.1694 49.0638 54.042 49.0885C53.6956 49.1518 53.3437 49.1811 52.9915 49.1758C51.7823 49.1685 50.5732 49.1268 49.3643 49.1296C48.5145 49.1317 48.5234 49.1545 48.5243 49.9984C48.5243 51.4002 48.5053 52.8027 48.5148 54.2045C48.5172 54.5485 48.3922 54.714 48.0531 54.7104C47.2835 54.7028 46.5137 54.6991 45.7453 54.6626C45.6534 54.6584 45.4975 54.4615 45.496 54.352C45.4758 53.1394 45.4825 51.9265 45.4825 50.7656Z" fill="black"/>
<path d="M100.582 51.069C100.582 52.0659 100.577 53.0628 100.584 54.0597C100.588 54.4689 100.466 54.7241 99.9932 54.729C99.4384 54.7339 98.8839 54.8026 98.33 54.7975C97.7761 54.7923 97.6422 54.6636 97.5715 54.1157C97.5271 53.7719 97.5335 53.4206 97.5347 53.0725C97.5378 52.1438 97.55 51.215 97.5601 50.2859C97.5724 49.1281 97.5295 47.9657 97.6159 46.813C97.6983 45.7178 98.3554 44.9591 99.3756 44.5384C100.697 43.9932 102.069 43.9643 103.448 44.2463C103.607 44.2789 103.822 44.5667 103.822 44.7358C103.822 45.364 103.756 45.9941 103.676 46.6183C103.665 46.7096 103.442 46.8313 103.312 46.8367C102.662 46.8705 102.01 46.8586 101.36 46.8869C100.858 46.9088 100.62 47.0971 100.603 47.5979C100.569 48.6194 100.596 49.6428 100.598 50.6653C100.598 50.8 100.598 50.9347 100.598 51.0696L100.582 51.069Z" fill="black"/>
</g>
<defs>
<clipPath id="clip0_5626_12980">
<rect width="71.6471" height="42" fill="white" transform="translate(32.1768 13)"/>
</clipPath>
</defs>
</svg>
