<svg width="136" height="68" viewBox="0 0 136 68" fill="none" xmlns="http://www.w3.org/2000/svg">
<g clip-path="url(#clip0_5626_659)">
<path d="M74.1674 20.9875C74.8969 19.3441 75.627 17.6999 76.3578 16.0548C76.7671 15.1356 77.1848 14.221 77.5804 13.2962C77.6736 13.0786 77.7959 12.9999 78.0208 13.004C78.683 13.0129 79.3458 13.0145 80.008 13.004C80.283 12.9997 80.3118 13.0848 80.2052 13.3234C79.2238 15.5152 78.2467 17.7091 77.274 19.9051C76.1014 22.5372 74.9262 25.1682 73.7484 27.7981C73.5903 28.1498 73.7891 28.1412 74.0253 28.1409C75.591 28.1409 77.1568 28.1409 78.7226 28.1409C81.6132 28.1409 84.5038 28.1409 87.3945 28.1409C89.9834 28.1409 92.1109 29.6671 92.9277 32.1133C93.13 32.7193 93.1906 33.3476 93.1906 33.9837C93.1906 38.611 93.1564 43.2389 93.2011 47.8659C93.234 51.273 90.481 53.769 87.2835 53.7601C74.1254 53.7237 60.9671 53.745 47.8088 53.7447C44.6023 53.7447 42.06 51.3842 42.0186 48.1778C41.9534 43.3102 41.9576 38.4419 42.0312 33.5727C42.0762 30.5141 44.6436 28.1423 47.7153 28.1415C55.3033 28.1395 62.8912 28.1421 70.4789 28.1493C70.8514 28.1493 71.0332 28.047 71.1792 27.6934C71.6639 26.5291 72.1859 25.3813 72.7078 24.2338C72.7835 24.0679 72.7975 23.9537 72.7196 23.7786C71.1845 20.3207 69.6619 16.8573 68.1262 13.398C67.9962 13.1077 68.0021 12.9929 68.3595 13.0034C68.9614 13.0207 69.5646 13.0255 70.1657 13.001C70.4889 12.9876 70.6422 13.1066 70.7685 13.4028C71.8236 15.8746 72.896 18.3388 73.9636 20.8052C73.9932 20.8736 74.0129 20.9484 74.1674 20.9875ZM68.6878 46.8829C68.6991 46.7795 68.7203 46.6758 68.7203 46.5724C68.722 43.1008 68.722 39.6291 68.7203 36.1573C68.7203 36.0536 68.6996 35.9502 68.6883 35.8465C68.6748 35.6806 68.5488 35.7232 68.4516 35.7226C68.0603 35.7207 67.6689 35.7226 67.2774 35.7226C66.404 35.7226 66.4056 35.7226 66.3631 36.5728C66.3582 36.6687 66.4156 36.7993 66.2823 36.8481C66.1796 36.8853 66.1261 36.7805 66.0625 36.7245C65.2597 36.0164 64.3144 35.6335 63.2649 35.4802C61.5329 35.2274 59.976 35.599 58.6675 36.7999C56.8329 38.4833 56.3861 40.6101 56.8927 42.9459C57.3236 44.9371 58.5562 46.3632 60.4999 46.9958C62.4885 47.6421 64.3887 47.3704 66.052 45.9934C66.125 45.9328 66.1778 45.7909 66.3033 45.8703C66.348 45.8972 66.3539 45.9993 66.3641 46.0688C66.4064 46.3602 66.219 46.7669 66.4597 46.9185C66.69 47.0636 67.0705 46.9742 67.3854 46.9793C67.7314 46.9847 68.0778 46.9834 68.4238 46.9793C68.5189 46.9772 68.642 47.0294 68.6878 46.8829ZM81.9449 46.9793C80.6312 45.183 79.3943 43.4823 78.1433 41.7918C77.9739 41.5629 77.9516 41.4148 78.129 41.1668C79.289 39.538 80.429 37.8949 81.5684 36.2518C81.6737 36.0999 81.9091 35.9486 81.8181 35.7671C81.74 35.6117 81.4868 35.7105 81.3128 35.7075C80.726 35.6984 80.1384 35.7181 79.5521 35.6981C79.2513 35.6879 79.0587 35.7749 78.8826 36.0358C78.0671 37.2445 77.2169 38.43 76.4049 39.64C76.2032 39.9398 76.1165 39.9282 75.9247 39.6433C75.1275 38.4583 74.3142 37.2822 73.5009 36.1077C73.3932 35.9526 73.3172 35.7178 73.0969 35.7137C72.2322 35.6981 71.3671 35.7075 70.4429 35.7075C70.5471 35.8839 70.6007 35.9901 70.668 36.0865C71.8333 37.7495 72.9914 39.4173 74.1744 41.0687C74.3869 41.365 74.3993 41.5589 74.179 41.8524C73.0693 43.3319 71.9732 44.8221 70.8907 46.323C70.7507 46.5164 70.5441 46.6874 70.5094 46.9823C71.2904 46.9823 72.0418 46.9678 72.7929 46.9893C73.0956 46.9979 73.2865 46.9104 73.4662 46.6575C74.2741 45.5156 75.109 44.3934 75.9212 43.255C76.1151 42.983 76.2204 42.9782 76.4205 43.2612C77.2368 44.4155 78.076 45.5536 78.9087 46.6963C79.0032 46.8261 79.073 46.9845 79.2801 46.9831C80.1303 46.9766 80.9829 46.9793 81.9455 46.9793H81.9449ZM49.3678 40.8678H49.3813C49.3813 41.8015 49.3374 42.7379 49.3918 43.6687C49.4726 45.0565 50.008 46.2201 51.3308 46.8506C52.7358 47.5207 54.1538 47.421 55.5542 46.7967C56.2566 46.4843 56.256 46.4843 55.8706 45.8089C55.8035 45.6915 55.7389 45.5729 55.6767 45.4532C55.2806 44.6972 55.2903 44.7333 54.4866 44.9439C52.8304 45.378 51.7143 44.7066 51.7372 42.9733C51.7582 41.3768 51.7537 39.7798 51.7335 38.1833C51.7286 37.7988 51.8113 37.6584 52.2266 37.6716C53.2338 37.7042 54.2424 37.6757 55.2504 37.6865C55.4976 37.6889 55.6021 37.6267 55.5887 37.3584C55.5664 36.9368 55.5664 36.5143 55.5887 36.0927C55.6054 35.7913 55.499 35.7092 55.2052 35.714C54.1818 35.7302 53.1584 35.7086 52.135 35.7261C51.8118 35.7318 51.7273 35.623 51.7337 35.3114C51.7526 34.4081 51.7324 33.5038 51.7445 32.6002C51.7483 32.3266 51.6554 32.2232 51.3804 32.2296C50.8687 32.2434 50.357 32.2566 49.8453 32.2264C49.4793 32.2054 49.3441 32.3034 49.3571 32.6947C49.3859 33.5835 49.3557 34.4722 49.3719 35.3609C49.3767 35.637 49.2943 35.7329 49.0172 35.7248C48.4611 35.7084 47.9028 35.7415 47.3474 35.7127C47.013 35.6954 46.9343 35.8223 46.9507 36.1258C46.9728 36.517 46.9728 36.9091 46.9507 37.3003C46.9341 37.5906 47.014 37.7015 47.3232 37.6881C47.8788 37.6636 48.4368 37.6972 48.9929 37.6751C49.2973 37.663 49.3764 37.7737 49.3716 38.064C49.3581 38.9999 49.3678 39.9339 49.3678 40.8678ZM85.8766 41.3666C85.8766 39.6198 85.8701 37.8734 85.8828 36.1269C85.885 35.8123 85.7926 35.7008 85.4726 35.7159C84.9619 35.7426 84.4502 35.7426 83.9394 35.7159C83.5953 35.6957 83.504 35.8107 83.5085 36.1468C83.5263 37.4715 83.5158 38.7966 83.5158 40.1216C83.5158 42.2596 83.5234 44.3977 83.5085 46.5358C83.5061 46.8878 83.5947 47.0144 83.9613 46.9896C84.4568 46.9595 84.9537 46.9595 85.4492 46.9896C85.784 47.0079 85.8879 46.9066 85.8844 46.5633C85.8675 44.8297 85.8766 43.098 85.8766 41.3666ZM84.631 34.0744C85.5545 34.0839 86.1895 33.5046 86.199 32.6444C86.2081 31.8276 85.5472 31.1607 84.7207 31.1524C83.8643 31.1438 83.1684 31.8012 83.1652 32.622C83.1619 33.4208 83.8134 34.0664 84.631 34.0744Z" fill="black"/>
<path d="M49.3687 18.9364C49.3687 17.2182 49.3802 15.5 49.3595 13.782C49.3552 13.4117 49.4672 13.3132 49.8195 13.3328C50.3157 13.3587 50.8129 13.3587 51.309 13.3328C51.6435 13.3164 51.7669 13.4217 51.7491 13.7661C51.7381 13.974 51.6128 14.2757 51.8334 14.3812C51.9823 14.4526 52.1191 14.1658 52.2605 14.0427C53.9529 12.5537 57.4262 12.5561 58.8751 14.7753C59.0636 15.065 59.1474 14.9535 59.316 14.7577C60.6701 13.1885 62.4109 12.7357 64.3739 13.1481C66.1926 13.53 67.4821 15.2175 67.5149 17.2225C67.5532 19.558 67.5203 21.8945 67.5289 24.2305C67.5289 24.4875 67.4519 24.5782 67.1958 24.5712C66.6841 24.5572 66.1708 24.5443 65.6607 24.575C65.2912 24.5976 65.1776 24.4942 65.1813 24.1083C65.2015 22.0437 65.1875 19.9789 65.1921 17.9141C65.194 17.0402 64.9381 16.2737 64.2455 15.7133C63.0551 14.7505 61.08 15.1162 60.2362 16.4323C59.7536 17.1848 59.6257 18.0258 59.6214 18.8928C59.6122 20.6411 59.6098 22.3895 59.6259 24.1376C59.6292 24.4718 59.5452 24.5936 59.2007 24.5742C58.7045 24.5474 58.2073 24.5474 57.7111 24.5742C57.3688 24.5922 57.2503 24.5071 57.2533 24.1328C57.2738 22.0529 57.2695 19.973 57.2608 17.8931C57.2552 16.5533 56.4586 15.4461 55.3784 15.2409C53.703 14.9226 52.3621 15.7709 51.9083 17.425C51.7709 17.9257 51.7408 18.4344 51.7397 18.9469C51.7367 20.6802 51.7286 22.4135 51.7467 24.1465C51.7502 24.4939 51.6433 24.5901 51.3117 24.5742C50.8004 24.5466 50.2879 24.547 49.7767 24.5755C49.4193 24.5976 49.3576 24.4608 49.3603 24.1365C49.3778 22.4027 49.3687 20.6694 49.3687 18.9364Z" fill="black"/>
<path d="M66.3593 41.3401C66.3669 42.9727 65.6491 44.1972 64.172 44.8697C62.7909 45.4983 61.4204 45.3402 60.2529 44.3367C59.0658 43.3163 58.8353 41.9487 59.0903 40.4707C59.3653 38.8796 60.6127 37.6893 62.1389 37.5371C63.883 37.3632 65.4849 38.2578 66.0932 39.753C66.2995 40.2599 66.3687 40.7942 66.3593 41.3401Z" fill="black"/>
</g>
<defs>
<clipPath id="clip0_5626_659">
<rect width="51.2294" height="40.7604" fill="white" transform="translate(41.9727 13)"/>
</clipPath>
</defs>
</svg>
