<svg width="136" height="68" viewBox="0 0 136 68" fill="none" xmlns="http://www.w3.org/2000/svg">
<path d="M91.3429 27.3719C91.3706 28.1255 91.3197 28.8798 91.1912 29.6228C90.759 32.673 88.7826 34.3475 86.0343 35.2212C83.6287 35.9796 81.1245 36.1237 78.6112 36.0918C78.5156 36.0918 78.4186 36.0918 78.3215 36.0827C78.1031 36.063 77.9893 36.1494 77.9726 36.3754C77.9529 36.6272 78.1243 36.603 78.2866 36.6196C79.9035 36.7713 81.5113 36.6682 83.1175 36.4862C84.607 36.3163 86.104 36.1828 87.5237 35.6353C88.4507 35.2632 89.33 34.782 90.1432 34.2019C90.1902 34.4825 90.0764 34.6812 90.0097 34.8814C89.6593 35.9553 89.3317 37.0398 88.684 37.9847C87.4949 39.7199 85.8022 40.4282 83.7455 40.4358C81.6887 40.4434 79.6654 40.087 77.6374 39.8003C77.397 39.7737 77.158 39.7347 76.9215 39.6835C76.5894 39.6031 76.4559 39.8352 76.4028 40.0566C76.3376 40.3281 76.6242 40.272 76.7683 40.3114C79.8777 41.1366 83.0204 41.6113 86.2269 41.1972C86.3315 41.3671 86.2102 41.4339 86.145 41.5142C85.6062 42.1997 85.0132 42.8408 84.3719 43.4314C83.2828 44.4082 81.9663 44.5265 80.6012 44.4219C78.8311 44.2839 77.2249 43.5998 75.6399 42.8657C75.386 42.7621 75.1393 42.642 74.9012 42.5062C74.5978 42.3151 74.3597 42.3727 74.2141 42.6579C74.0685 42.943 74.4007 42.9749 74.5478 43.0659C76.6788 44.3673 78.9646 45.2561 81.4506 45.5943C81.5871 45.6125 81.7858 45.5746 81.8449 45.7233C81.9223 45.9129 81.7039 45.9887 81.5992 46.0888C79.72 47.9089 76.9261 48.1334 74.5372 46.6743C73.7554 46.1899 73.0413 45.6038 72.4137 44.9315C72.2711 44.7798 72.165 44.4765 71.8419 44.7556C71.5385 45.0104 71.7509 45.1727 71.8874 45.3623C73.1812 47.1505 74.93 48.2563 77.055 48.7977C77.0997 48.8128 77.1433 48.831 77.1854 48.8523C77.1854 48.8887 77.2036 48.9373 77.1854 48.9464C76.239 49.6547 75.203 50.1598 74.0002 50.219C73.1326 50.2599 72.4046 49.8716 71.7615 49.321C71.0452 48.692 70.4207 47.9654 69.9065 47.1627C69.82 47.0307 69.8125 46.6712 69.4863 46.8593C69.2012 47.0216 69.1678 47.234 69.3347 47.5449C70.0931 48.9949 71.0152 50.3024 72.309 51.3141C72.6352 51.5689 72.6003 51.7008 72.309 51.9117C70.974 52.8528 69.4857 53.5548 67.9104 53.9866C67.7858 54.02 67.6541 54.0169 67.5312 53.9775C66.0169 53.5657 64.5838 52.8989 63.2934 52.0057C62.7747 51.6386 62.7883 51.6295 63.257 51.2397C64.4678 50.2141 65.4496 48.9454 66.1388 47.5161C66.2238 47.3447 66.3345 47.1824 66.1388 46.9943C65.9432 46.8062 65.8052 46.7243 65.6247 47.0231C65.1213 47.8523 64.4989 48.603 63.7772 49.2513C62.5881 50.3251 61.2716 50.4783 59.8337 49.8428C59.2397 49.5847 58.6752 49.2633 58.1501 48.8842C58.93 48.6995 59.6855 48.4236 60.4009 48.0621C61.6829 47.4326 62.7884 46.4945 63.618 45.3319C63.7697 45.1196 63.888 44.9527 63.6089 44.7252C63.3298 44.4977 63.2312 44.7449 63.1068 44.8769C61.8661 46.2041 60.4388 47.1991 58.602 47.5252C56.7379 47.8573 55.162 47.325 53.8167 46.0296C53.7287 45.9447 53.5618 45.878 53.6028 45.7354C53.6437 45.5928 53.8182 45.6156 53.941 45.5974C55.0914 45.4335 56.2246 45.1655 57.3264 44.7965C58.6187 44.3597 59.8064 43.7044 60.9803 43.0265C61.1047 42.9536 61.4354 42.9354 61.2625 42.6457C61.1335 42.4379 60.9591 42.3075 60.6557 42.4577C59.636 42.9798 58.5837 43.4358 57.5054 43.8228C56.2435 44.2626 54.9557 44.5174 53.6104 44.4295C52.6982 44.3928 51.8245 44.0515 51.1289 43.4602C50.3783 42.7854 49.6978 42.0364 49.098 41.2245C49.9656 41.27 50.7285 41.3337 51.493 41.3459C54.0002 41.3823 56.4361 40.9045 58.8478 40.2841C58.96 40.2538 59.1511 40.2462 59.0631 40.0536C58.9752 39.861 58.9115 39.6274 58.5854 39.6835C57.9787 39.7912 57.372 39.8746 56.7652 39.9611C54.8496 40.2356 52.9369 40.545 50.9864 40.3979C48.7112 40.225 47.1838 39.0192 46.2328 37.0155C45.8203 36.1057 45.4943 35.1591 45.2591 34.1883C45.7778 34.5068 46.1934 34.7737 46.6242 35.021C48.1106 35.881 49.7532 36.201 51.4308 36.3861C53.3085 36.5939 55.1848 36.8229 57.0777 36.6166C57.2415 36.5999 57.5039 36.7273 57.5009 36.3891C57.4978 36.0509 57.2552 36.0751 57.0231 36.0857C54.7623 36.1642 52.5007 35.9573 50.2917 35.4699C48.8634 35.1681 47.5283 34.5283 46.3982 33.6043C44.7525 32.2392 44.2428 30.3766 44.1306 28.3487C44.1154 28.0787 44.1306 27.8057 44.1306 27.5433C44.2337 27.4751 44.2929 27.5433 44.3505 27.5919C46.5165 29.6956 49.1738 30.8954 52.0193 31.7402C53.5238 32.1749 55.0637 32.4764 56.6212 32.6412C56.8123 32.6639 57.0762 32.8171 57.1156 32.4137C57.1444 32.0678 56.9306 32.0633 56.6955 32.0375C53.8697 31.7341 51.2063 30.8726 48.6763 29.6107C46.6606 28.6126 45.0619 27.1687 44.3308 24.9603C43.8166 23.395 43.985 21.8175 44.2762 20.2492C44.3225 20.2416 44.37 20.2487 44.4122 20.2693C44.4543 20.29 44.4889 20.3232 44.5113 20.3645C47.519 24.1973 51.5036 26.5483 56.0873 27.9893C56.5423 28.1409 57.0201 28.2471 57.4796 28.3912C57.7208 28.467 57.8346 28.3912 57.9134 28.1652C58.0044 27.9073 57.8376 27.8618 57.6647 27.7997C56.9478 27.5408 56.2354 27.2799 55.5276 27.017C52.7746 26.0068 50.3008 24.5234 48.3017 22.3787C46.1964 20.1172 45.611 17.4098 46.4452 14.4279C46.6939 13.5315 47.3097 12.855 47.8982 12.1709C47.9726 12.0845 48.0772 12.1224 48.1713 12.1254C48.2395 12.7321 48.5398 13.2569 48.825 13.7741C50.0232 15.9446 51.6401 17.8072 53.3116 19.6228C55.3001 21.7842 57.5919 23.58 60.0506 25.1666C60.6952 25.5821 61.2958 26.0766 62.0299 26.3496C62.0299 26.5453 61.8889 26.6697 61.7873 26.8122C61.2241 27.5978 60.8227 28.4874 60.6063 29.4294C60.3899 30.3714 60.3628 31.347 60.5266 32.2996C60.6905 33.2521 61.042 34.1627 61.5607 34.9782C62.0794 35.7938 62.755 36.4982 63.5482 37.0504C63.6847 37.146 63.8045 37.3022 64.0503 37.2643C63.7955 35.9556 63.9756 34.5995 64.5629 33.4026C65.1696 32.177 66.1313 31.2791 67.3705 30.542C67.1187 30.4646 66.9837 30.41 66.8441 30.3903C65.2242 30.0703 65.1636 28.1151 65.793 27.1854C65.8749 27.064 65.9447 26.9124 66.0964 27.1277C66.8138 28.0787 67.8316 28.6551 68.8023 29.2891C69.9035 30.0065 70.9697 30.7604 71.6371 31.9389C71.7296 32.1027 71.8828 32.2984 71.7888 32.4728C71.6948 32.6472 71.4642 32.5168 71.3004 32.5092C70.3327 32.4683 69.4606 32.6199 68.9251 33.5588C68.1106 34.9861 68.6991 36.7789 70.2174 37.5403C70.3612 37.624 70.5251 37.6667 70.6915 37.6638C70.8578 37.6609 71.0201 37.6124 71.1609 37.5236C72.0754 37.0358 72.8758 36.3592 73.5093 35.5388C74.1427 34.7183 74.5946 33.7727 74.835 32.7645C75.0755 31.7562 75.0991 30.7084 74.9042 29.6904C74.7093 28.6724 74.3004 27.7074 73.7045 26.8593C73.5953 26.7076 73.4345 26.5726 73.439 26.3572C73.5695 26.2981 73.706 26.251 73.8288 26.1798C78.4459 23.5013 82.438 19.8681 85.5383 15.523C86.2845 14.4764 87.0004 13.3995 87.3008 12.1133C87.5753 12.1375 87.7027 12.3651 87.8604 12.5365C89.3605 14.1685 89.5759 16.1251 89.2407 18.1985C88.8205 20.7877 87.2689 22.6093 85.2273 24.1276C83.0265 25.7717 80.5754 26.8881 77.9863 27.7435C77.8119 27.8027 77.4797 27.7602 77.5449 28.1242C77.5965 28.417 77.7664 28.4579 78.0394 28.3836C80.1932 27.7951 82.2863 27.0762 84.2384 25.9568C86.5469 24.6266 88.6947 23.1038 90.4268 21.0516C90.5406 20.9166 90.6437 20.771 90.759 20.6375C90.8742 20.504 90.9213 20.319 91.1518 20.2189C91.2914 20.4813 91.2747 20.774 91.3156 21.0425C91.6857 23.4693 91.3551 25.7096 89.5835 27.5646C88.4247 28.778 87.0217 29.6167 85.4761 30.2341C83.298 31.1047 81.0775 31.8251 78.7219 32.0542C78.4732 32.0769 78.3412 32.1482 78.3625 32.4349C78.3837 32.7564 78.59 32.6882 78.7735 32.6654C82.4092 32.2256 85.8629 31.2639 88.9828 29.2922C89.8419 28.7465 90.634 28.102 91.3429 27.3719Z" fill="#1E2D56"/>
<path d="M86.8524 12.018C74.1227 12.014 61.3935 12.0134 48.6648 12.0165C48.498 12.0165 48.3038 11.9391 48.1719 12.1196C48.2401 12.7263 48.5404 13.2511 48.8256 13.7683C50.0238 15.9434 51.6407 17.806 53.3122 19.6215C55.3007 21.7829 57.5925 23.5788 60.0512 25.1653C60.6958 25.5809 61.2964 26.0754 62.0306 26.3484C62.5614 25.9389 63.0013 25.4232 63.5579 25.0394C65.0281 24.0131 66.8252 23.5654 68.605 23.7821C70.3848 23.9987 72.022 24.8644 73.203 26.2134C73.2668 26.2862 73.332 26.3651 73.4427 26.3484C73.5731 26.2892 73.7096 26.2422 73.8325 26.1709C78.4496 23.4925 82.4417 19.8593 85.5419 15.5141C86.2882 14.4676 87.0041 13.3907 87.3044 12.1045C87.177 11.9513 87.0041 12.018 86.8524 12.018ZM59.5506 18.0107C59.3645 18.008 59.1867 17.9334 59.0543 17.8025C58.922 17.6716 58.8455 17.4946 58.8408 17.3085C58.847 17.1221 58.9229 16.9448 59.0535 16.8117C59.1841 16.6786 59.3599 16.5993 59.5461 16.5895C59.8616 16.5895 60.259 16.9884 60.2681 17.3191C60.2566 17.5043 60.1758 17.6783 60.0417 17.8065C59.9076 17.9347 59.7301 18.0076 59.5446 18.0107H59.5506ZM63.0771 18.2837C62.8186 18.2648 62.577 18.1478 62.4019 17.9566C62.2268 17.7655 62.1314 17.5146 62.1352 17.2554C62.1455 17.0119 62.2518 16.7825 62.4309 16.6173C62.61 16.4521 62.8473 16.3647 63.0908 16.3741C63.561 16.3863 64.0357 16.855 64.0327 17.3039C64.0221 17.7862 63.5291 18.2928 63.0711 18.2837H63.0771ZM69.1942 17.624C68.853 17.7893 68.7225 18.0289 68.8499 18.4036C68.9409 18.6705 68.7786 18.7069 68.5284 18.6675C68.1932 18.4824 67.9566 18.6356 67.7776 18.9708C67.6684 19.1756 67.5121 19.162 67.4272 18.9708C67.2755 18.625 67.0753 18.4749 66.687 18.5932C66.4656 18.6584 66.3215 18.5173 66.411 18.2898C66.5626 17.9197 66.3988 17.7225 66.0985 17.5481C65.8725 17.4177 65.9104 17.2705 66.138 17.1735C66.4898 17.0218 66.5505 16.7533 66.4595 16.4151C66.3685 16.0769 66.5187 16.0587 66.7629 16.1633C67.092 16.3074 67.3165 16.2058 67.4773 15.9039C67.6198 15.634 67.7715 15.6264 67.9111 15.9039C68.0506 16.1815 68.2599 16.3362 68.6103 16.2073C68.8332 16.1224 68.9819 16.2649 68.8924 16.4849C68.7407 16.8701 68.8924 17.0916 69.1958 17.2751C69.3884 17.3949 69.399 17.5223 69.1882 17.624H69.1942ZM72.3233 18.2853C72.199 18.2824 72.0766 18.2546 71.9632 18.2037C71.8498 18.1527 71.7477 18.0795 71.663 17.9885C71.5784 17.8975 71.5128 17.7904 71.4701 17.6736C71.4275 17.5568 71.4087 17.4326 71.4148 17.3085C71.4133 17.1845 71.4368 17.0616 71.4839 16.9469C71.5309 16.8323 71.6006 16.7282 71.6887 16.6411C71.7768 16.5539 71.8815 16.4853 71.9967 16.4395C72.1118 16.3936 72.235 16.3714 72.3589 16.3741C72.4828 16.3769 72.6049 16.4046 72.7179 16.4555C72.8309 16.5064 72.9325 16.5795 73.0166 16.6705C73.1008 16.7615 73.1658 16.8685 73.2077 16.9852C73.2496 17.1018 73.2676 17.2257 73.2607 17.3494C73.2617 17.4732 73.238 17.596 73.1908 17.7105C73.1437 17.825 73.0741 17.9289 72.9862 18.0162C72.8983 18.1034 72.7938 18.1721 72.6789 18.2183C72.564 18.2645 72.4411 18.2873 72.3173 18.2853H72.3233ZM75.9924 18.0107C75.8958 18.0158 75.7991 18.0014 75.7082 17.9684C75.6173 17.9353 75.5339 17.8843 75.4631 17.8183C75.3924 17.7524 75.3356 17.6728 75.2962 17.5844C75.2569 17.4961 75.2357 17.4007 75.234 17.3039C75.234 16.9672 75.6147 16.6032 75.9681 16.6032C76.0605 16.6055 76.1516 16.6262 76.2359 16.664C76.3203 16.7019 76.3963 16.7561 76.4595 16.8235C76.5227 16.891 76.5719 16.9703 76.6042 17.057C76.6365 17.1436 76.6513 17.2358 76.6476 17.3282C76.6509 17.4169 76.6362 17.5054 76.6044 17.5883C76.5726 17.6712 76.5243 17.7468 76.4626 17.8105C76.4008 17.8743 76.3267 17.9249 76.2449 17.9593C76.1631 17.9937 76.0751 18.0112 75.9863 18.0107H75.9924Z" fill="#CBAA97"/>
</svg>
