<svg width="136" height="68" viewBox="0 0 136 68" fill="none" xmlns="http://www.w3.org/2000/svg">
<path d="M9.8696 42.5467V37.1564H8.51172V34.3988H9.8696V31.4922H13.095V34.3988H15.7683V37.1564H13.095V42.0165C13.095 42.7594 13.4131 43.1199 14.1347 43.1199C14.6909 43.1225 15.2386 42.9838 15.7265 42.717V45.3055C15.0466 45.7084 14.262 45.9629 13.1792 45.9629C11.2069 45.9629 9.86897 45.1783 9.86897 42.5473L9.8696 42.5467Z" fill="black"/>
<path d="M25.1892 39.1949C25.0021 37.7522 24.1501 36.776 22.7922 36.776C21.4568 36.776 20.5836 37.731 20.3341 39.1949H25.1892ZM17.1692 40.1074C17.1692 36.8608 19.482 34.1875 22.7922 34.1875C26.5902 34.1875 28.3298 37.1372 28.3298 40.3625C28.3298 40.6164 28.3086 40.9133 28.2874 41.2114H20.3727C20.6915 42.6753 21.71 43.4388 23.1515 43.4388C24.2337 43.4388 25.0183 43.0995 25.9097 42.2718L27.7566 43.906C26.6962 45.2208 25.1674 46.0267 23.1091 46.0267C19.6935 46.0267 17.168 43.629 17.168 40.1068L17.1692 40.1074Z" fill="black"/>
<path d="M32.8464 40.0002L29.0054 34.3984H32.464L34.586 37.7086L36.7291 34.3984H40.1023L36.262 39.9366L40.2726 45.7717H36.814L34.5224 42.2282L32.2307 45.7717H28.8569L32.8464 40.0002Z" fill="black"/>
<path d="M41.7324 34.4002H44.9578V36.0126C45.7 35.057 46.655 34.1875 48.2885 34.1875C50.7292 34.1875 52.1507 35.8005 52.1507 38.4102V45.7703H48.9254V39.4288C48.9254 37.9006 48.2037 37.116 46.9743 37.116C45.7449 37.116 44.9584 37.9006 44.9584 39.4288V45.7716H41.7324V34.4002Z" fill="black"/>
<path d="M63.247 40.1074C63.247 38.4314 62.0376 36.9669 60.2531 36.9669C58.4062 36.9669 57.3034 38.389 57.3034 40.1074C57.3034 41.7834 58.5128 43.2479 60.2974 43.2479C62.1399 43.2479 63.247 41.8258 63.247 40.1074ZM54.123 40.1074C54.123 36.8396 56.7539 34.1875 60.298 34.1875C63.8202 34.1875 66.43 36.7972 66.43 40.1074C66.43 43.3745 63.799 46.0273 60.2549 46.0273C56.7321 46.0273 54.1211 43.4176 54.1211 40.1074H54.123Z" fill="black"/>
<path d="M68.4927 34.4002H71.7174V36.0126C72.4603 35.057 73.4364 34.1875 75.07 34.1875C76.5558 34.1875 77.6804 34.8449 78.2742 35.9907C79.2721 34.8237 80.4572 34.1875 82.0091 34.1875C84.4068 34.1875 85.8488 35.6302 85.8488 38.3665V45.7716H82.6241V39.4288C82.6241 37.9006 81.9442 37.116 80.7354 37.116C79.5266 37.116 78.785 37.9006 78.785 39.4288V45.7716H75.5584V39.4288C75.5584 37.9006 74.8785 37.116 73.6691 37.116C72.4597 37.116 71.7187 37.9006 71.7187 39.4288V45.7716H68.4927V34.4002Z" fill="black"/>
<path d="M95.1584 41.7639V41.1913C94.5101 40.9057 93.8085 40.7609 93.1001 40.7666C91.721 40.7666 90.8721 41.3186 90.8721 42.3795C90.8721 43.2528 91.5932 43.7586 92.6329 43.7586C94.1405 43.7586 95.1584 42.9316 95.1584 41.7627V41.7639ZM87.7534 42.4638C87.7534 39.9813 89.6415 38.8355 92.3348 38.8355C93.2816 38.827 94.2226 38.9849 95.1148 39.302V39.1112C95.1148 37.7745 94.2871 37.0322 92.6741 37.0322C91.4441 37.0322 90.574 37.2655 89.5342 37.6472L88.7308 35.186C89.9827 34.634 91.2133 34.2734 93.1438 34.2734C94.9052 34.2734 96.1783 34.74 96.9841 35.5465C97.833 36.3954 98.2154 37.6472 98.2154 39.1754V45.7727H95.0967V44.5433C94.3114 45.4165 93.2292 45.9866 91.6593 45.9866C89.5161 45.9866 87.7553 44.7554 87.7553 42.4638H87.7534Z" fill="black"/>
<path d="M100.803 34.4012H104.028V36.6922C104.686 35.1216 105.747 34.1037 107.656 34.1885V37.5623H107.487C105.344 37.5623 104.029 38.8566 104.029 41.5723V45.7726H100.803V34.4012Z" fill="black"/>
<path d="M110.13 42.5467V37.1564H108.771V34.3988H110.13V31.4922H113.356V34.3988H116.029V37.1564H113.356V42.0165C113.356 42.7594 113.674 43.1199 114.395 43.1199C114.951 43.1226 115.499 42.9839 115.987 42.717V45.3055C115.307 45.7084 114.522 45.9629 113.44 45.9629C111.467 45.9629 110.13 45.1783 110.13 42.5473L110.13 42.5467Z" fill="black"/>
<path d="M128.254 30.5119L126.936 28.229L124.199 29.8089V26.6484H121.563V29.8089L118.825 28.229L117.506 30.5119L120.244 32.0924L117.506 33.673L118.825 35.9565L121.563 34.3759V37.5364H124.199V34.3759L126.936 35.9565L128.254 33.673L125.518 32.0924L128.254 30.5119Z" fill="black"/>
</svg>
